<svg xmlns="http://www.w3.org/2000/svg" xmlns:xlink="http://www.w3.org/1999/xlink" width="800" zoomAndPan="magnify" viewBox="0 0 600 449.999984" height="600" preserveAspectRatio="xMidYMid meet" version="1.0"><defs><g/></defs><g fill="#198653" fill-opacity="1"><g transform="translate(0.0000108667, 359.884319)"><g><path d="M 3.03125 -23.125 L 13.078125 -23.125 C 15.484375 -23.125 17.378906 -22.609375 18.765625 -21.578125 C 20.148438 -20.554688 20.84375 -19.144531 20.84375 -17.34375 C 20.84375 -16.039062 20.476562 -14.929688 19.75 -14.015625 C 19.019531 -13.109375 18.03125 -12.5 16.78125 -12.1875 C 18.320312 -11.925781 19.53125 -11.273438 20.40625 -10.234375 C 21.289062 -9.203125 21.734375 -7.90625 21.734375 -6.34375 C 21.734375 -4.363281 20.984375 -2.8125 19.484375 -1.6875 C 17.992188 -0.5625 15.9375 0 13.3125 0 L 3.03125 0 Z M 6.9375 -19.65625 L 6.9375 -13.546875 L 12.875 -13.546875 C 14.113281 -13.546875 15.082031 -13.816406 15.78125 -14.359375 C 16.488281 -14.910156 16.84375 -15.671875 16.84375 -16.640625 C 16.84375 -17.609375 16.492188 -18.351562 15.796875 -18.875 C 15.109375 -19.394531 14.132812 -19.65625 12.875 -19.65625 Z M 6.9375 -10.109375 L 6.9375 -3.46875 L 12.875 -3.46875 C 14.414062 -3.46875 15.609375 -3.757812 16.453125 -4.34375 C 17.304688 -4.925781 17.734375 -5.757812 17.734375 -6.84375 C 17.734375 -7.851562 17.300781 -8.648438 16.4375 -9.234375 C 15.582031 -9.816406 14.394531 -10.109375 12.875 -10.109375 Z M 6.9375 -10.109375 "/></g></g></g><g fill="#136d43" fill-opacity="1"><g transform="translate(23.422216, 359.884319)"><g><path d="M 10.046875 -17.703125 C 13.054688 -17.703125 15.238281 -16.789062 16.59375 -14.96875 C 17.945312 -13.15625 18.503906 -10.609375 18.265625 -7.328125 L 4.984375 -7.328125 C 5.296875 -5.960938 5.9375 -4.890625 6.90625 -4.109375 C 7.875 -3.328125 9.050781 -2.9375 10.4375 -2.9375 C 12.414062 -2.9375 14.066406 -3.617188 15.390625 -4.984375 L 17.40625 -2.84375 C 15.601562 -0.863281 13.179688 0.125 10.140625 0.125 C 7.429688 0.125 5.253906 -0.691406 3.609375 -2.328125 C 1.972656 -3.972656 1.15625 -6.113281 1.15625 -8.75 C 1.15625 -11.394531 1.976562 -13.539062 3.625 -15.1875 C 5.28125 -16.84375 7.421875 -17.679688 10.046875 -17.703125 Z M 4.921875 -10.109375 L 14.96875 -10.109375 C 14.894531 -11.515625 14.414062 -12.625 13.53125 -13.4375 C 12.65625 -14.257812 11.503906 -14.671875 10.078125 -14.671875 C 8.691406 -14.671875 7.539062 -14.257812 6.625 -13.4375 C 5.707031 -12.625 5.140625 -11.515625 4.921875 -10.109375 Z M 4.921875 -10.109375 "/></g></g></g><g fill="#136d43" fill-opacity="1"><g transform="translate(42.946593, 359.884319)"><g/></g></g><g fill="#136d43" fill-opacity="1"><g transform="translate(51.569042, 359.884319)"><g><path d="M 12.921875 -17.703125 C 15.398438 -17.703125 17.414062 -16.867188 18.96875 -15.203125 C 20.53125 -13.546875 21.3125 -11.382812 21.3125 -8.71875 C 21.3125 -6.070312 20.550781 -3.9375 19.03125 -2.3125 C 17.507812 -0.6875 15.492188 0.125 12.984375 0.125 C 10.160156 0.125 8.085938 -0.925781 6.765625 -3.03125 L 6.765625 6.40625 L 2.96875 6.40625 L 2.96875 -17.578125 L 6.765625 -17.578125 L 6.765625 -14.53125 C 8.085938 -16.644531 10.140625 -17.703125 12.921875 -17.703125 Z M 8.265625 -4.703125 C 9.273438 -3.640625 10.5625 -3.109375 12.125 -3.109375 C 13.6875 -3.109375 14.96875 -3.640625 15.96875 -4.703125 C 16.96875 -5.773438 17.46875 -7.160156 17.46875 -8.859375 C 17.46875 -10.503906 16.96875 -11.859375 15.96875 -12.921875 C 14.96875 -13.992188 13.6875 -14.53125 12.125 -14.53125 C 10.5625 -14.53125 9.273438 -13.992188 8.265625 -12.921875 C 7.265625 -11.859375 6.765625 -10.503906 6.765625 -8.859375 C 6.765625 -7.160156 7.265625 -5.773438 8.265625 -4.703125 Z M 8.265625 -4.703125 "/></g></g></g><g fill="#136d43" fill-opacity="1"><g transform="translate(74.132747, 359.884319)"><g><path d="M 13.34375 0 L 13.34375 -2.140625 C 12.09375 -0.597656 10.15625 0.171875 7.53125 0.171875 C 5.65625 0.171875 4.15625 -0.335938 3.03125 -1.359375 C 1.914062 -2.390625 1.359375 -3.695312 1.359375 -5.28125 C 1.359375 -6.894531 1.941406 -8.171875 3.109375 -9.109375 C 4.273438 -10.054688 5.90625 -10.539062 8 -10.5625 L 13.3125 -10.5625 L 13.3125 -11.09375 C 13.3125 -12.21875 12.953125 -13.085938 12.234375 -13.703125 C 11.523438 -14.328125 10.484375 -14.640625 9.109375 -14.640625 C 7.421875 -14.640625 5.695312 -14.039062 3.9375 -12.84375 L 2.375 -15.484375 C 3.71875 -16.285156 4.921875 -16.851562 5.984375 -17.1875 C 7.054688 -17.53125 8.375 -17.703125 9.9375 -17.703125 C 12.1875 -17.703125 13.925781 -17.15625 15.15625 -16.0625 C 16.394531 -14.976562 17.023438 -13.46875 17.046875 -11.53125 L 17.078125 0 Z M 8.328125 -2.84375 C 9.671875 -2.84375 10.804688 -3.15625 11.734375 -3.78125 C 12.671875 -4.40625 13.195312 -5.203125 13.3125 -6.171875 L 13.3125 -7.796875 L 8.5625 -7.796875 C 7.300781 -7.796875 6.378906 -7.613281 5.796875 -7.25 C 5.210938 -6.882812 4.921875 -6.285156 4.921875 -5.453125 C 4.921875 -4.660156 5.222656 -4.023438 5.828125 -3.546875 C 6.429688 -3.078125 7.265625 -2.84375 8.328125 -2.84375 Z M 8.328125 -2.84375 "/></g></g></g><g fill="#136d43" fill-opacity="1"><g transform="translate(93.591065, 359.884319)"><g><path d="M 6.609375 -17.578125 L 6.609375 -14.078125 C 7.816406 -16.492188 9.84375 -17.703125 12.6875 -17.703125 L 12.6875 -14.078125 C 10.945312 -14.160156 9.535156 -13.75 8.453125 -12.84375 C 7.378906 -11.945312 6.765625 -10.726562 6.609375 -9.1875 L 6.609375 0 L 2.8125 0 L 2.8125 -17.578125 Z M 6.609375 -17.578125 "/></g></g></g><g fill="#136d43" fill-opacity="1"><g transform="translate(106.706436, 359.884319)"><g><path d="M 11.796875 -4.03125 L 12.75 -1.125 C 11.289062 -0.257812 9.847656 0.171875 8.421875 0.171875 C 6.992188 0.171875 5.816406 -0.253906 4.890625 -1.109375 C 3.960938 -1.972656 3.5 -3.253906 3.5 -4.953125 L 3.5 -14.078125 L 1.03125 -14.078125 L 1.03125 -16.90625 L 3.5 -16.90625 L 3.5 -21.734375 L 7.265625 -21.734375 L 7.265625 -16.90625 L 12.453125 -16.90625 L 12.453125 -14.078125 L 7.265625 -14.078125 L 7.265625 -5.640625 C 7.265625 -4.765625 7.414062 -4.148438 7.71875 -3.796875 C 8.03125 -3.441406 8.507812 -3.265625 9.15625 -3.265625 C 9.851562 -3.265625 10.734375 -3.519531 11.796875 -4.03125 Z M 11.796875 -4.03125 "/></g></g></g><g fill="#136d43" fill-opacity="1"><g transform="translate(120.251279, 359.884319)"><g/></g></g><g fill="#136d43" fill-opacity="1"><g transform="translate(128.873726, 359.884319)"><g><path d="M 10.34375 -17.703125 C 13.050781 -17.703125 15.25 -16.878906 16.9375 -15.234375 C 18.632812 -13.597656 19.484375 -11.445312 19.484375 -8.78125 C 19.484375 -6.144531 18.632812 -4 16.9375 -2.34375 C 15.25 -0.695312 13.050781 0.125 10.34375 0.125 C 7.613281 0.125 5.398438 -0.695312 3.703125 -2.34375 C 2.003906 -4 1.15625 -6.144531 1.15625 -8.78125 C 1.15625 -11.445312 2.003906 -13.597656 3.703125 -15.234375 C 5.398438 -16.878906 7.613281 -17.703125 10.34375 -17.703125 Z M 10.34375 -14.4375 C 8.75 -14.4375 7.453125 -13.90625 6.453125 -12.84375 C 5.453125 -11.789062 4.953125 -10.425781 4.953125 -8.75 C 4.953125 -7.050781 5.453125 -5.671875 6.453125 -4.609375 C 7.453125 -3.554688 8.742188 -3.03125 10.328125 -3.03125 C 11.921875 -3.03125 13.210938 -3.554688 14.203125 -4.609375 C 15.191406 -5.671875 15.6875 -7.050781 15.6875 -8.75 C 15.6875 -10.425781 15.1875 -11.789062 14.1875 -12.84375 C 13.1875 -13.90625 11.90625 -14.4375 10.34375 -14.4375 Z M 10.34375 -14.4375 "/></g></g></g><g fill="#136d43" fill-opacity="1"><g transform="translate(149.620444, 359.884319)"><g><path d="M 9.671875 -21.375 C 8.992188 -21.375 8.425781 -21.175781 7.96875 -20.78125 C 7.519531 -20.382812 7.296875 -19.789062 7.296875 -19 L 7.296875 -16.90625 L 11.890625 -16.90625 L 11.890625 -14.078125 L 7.296875 -14.078125 L 7.296875 0 L 3.53125 0 L 3.53125 -14.078125 L 1.21875 -14.078125 L 1.21875 -16.90625 L 3.53125 -16.90625 L 3.53125 -18.625 C 3.53125 -20.5625 4.125 -22.050781 5.3125 -23.09375 C 6.507812 -24.144531 7.929688 -24.671875 9.578125 -24.671875 C 11.117188 -24.671875 12.441406 -24.265625 13.546875 -23.453125 L 12.09375 -20.546875 C 11.34375 -21.097656 10.535156 -21.375 9.671875 -21.375 Z M 9.671875 -21.375 "/></g></g></g><g fill="#136d43" fill-opacity="1"><g transform="translate(161.050966, 359.884319)"><g/></g></g><g fill="#136d43" fill-opacity="1"><g transform="translate(169.673414, 359.884319)"><g><path d="M 11.796875 -4.03125 L 12.75 -1.125 C 11.289062 -0.257812 9.847656 0.171875 8.421875 0.171875 C 6.992188 0.171875 5.816406 -0.253906 4.890625 -1.109375 C 3.960938 -1.972656 3.5 -3.253906 3.5 -4.953125 L 3.5 -14.078125 L 1.03125 -14.078125 L 1.03125 -16.90625 L 3.5 -16.90625 L 3.5 -21.734375 L 7.265625 -21.734375 L 7.265625 -16.90625 L 12.453125 -16.90625 L 12.453125 -14.078125 L 7.265625 -14.078125 L 7.265625 -5.640625 C 7.265625 -4.765625 7.414062 -4.148438 7.71875 -3.796875 C 8.03125 -3.441406 8.507812 -3.265625 9.15625 -3.265625 C 9.851562 -3.265625 10.734375 -3.519531 11.796875 -4.03125 Z M 11.796875 -4.03125 "/></g></g></g><g fill="#136d43" fill-opacity="1"><g transform="translate(183.218252, 359.884319)"><g><path d="M 13.28125 -17.703125 C 15.320312 -17.703125 16.921875 -17.101562 18.078125 -15.90625 C 19.234375 -14.707031 19.8125 -13.050781 19.8125 -10.9375 L 19.8125 0 L 16.015625 0 L 16.015625 -9.875 C 16.015625 -11.195312 15.640625 -12.238281 14.890625 -13 C 14.148438 -13.757812 13.117188 -14.140625 11.796875 -14.140625 C 10.253906 -14.117188 9.03125 -13.59375 8.125 -12.5625 C 7.21875 -11.539062 6.765625 -10.238281 6.765625 -8.65625 L 6.765625 0 L 2.96875 0 L 2.96875 -24.515625 L 6.765625 -24.515625 L 6.765625 -14.140625 C 7.984375 -16.515625 10.15625 -17.703125 13.28125 -17.703125 Z M 13.28125 -17.703125 "/></g></g></g><g fill="#136d43" fill-opacity="1"><g transform="translate(205.418576, 359.884319)"><g><path d="M 10.046875 -17.703125 C 13.054688 -17.703125 15.238281 -16.789062 16.59375 -14.96875 C 17.945312 -13.15625 18.503906 -10.609375 18.265625 -7.328125 L 4.984375 -7.328125 C 5.296875 -5.960938 5.9375 -4.890625 6.90625 -4.109375 C 7.875 -3.328125 9.050781 -2.9375 10.4375 -2.9375 C 12.414062 -2.9375 14.066406 -3.617188 15.390625 -4.984375 L 17.40625 -2.84375 C 15.601562 -0.863281 13.179688 0.125 10.140625 0.125 C 7.429688 0.125 5.253906 -0.691406 3.609375 -2.328125 C 1.972656 -3.972656 1.15625 -6.113281 1.15625 -8.75 C 1.15625 -11.394531 1.976562 -13.539062 3.625 -15.1875 C 5.28125 -16.84375 7.421875 -17.679688 10.046875 -17.703125 Z M 4.921875 -10.109375 L 14.96875 -10.109375 C 14.894531 -11.515625 14.414062 -12.625 13.53125 -13.4375 C 12.65625 -14.257812 11.503906 -14.671875 10.078125 -14.671875 C 8.691406 -14.671875 7.539062 -14.257812 6.625 -13.4375 C 5.707031 -12.625 5.140625 -11.515625 4.921875 -10.109375 Z M 4.921875 -10.109375 "/></g></g></g><g fill="#136d43" fill-opacity="1"><g transform="translate(224.942962, 359.884319)"><g/></g></g><g fill="#136d43" fill-opacity="1"><g transform="translate(233.56542, 359.884319)"><g><path d="M 8.0625 -17.734375 C 10.476562 -17.734375 12.523438 -17.140625 14.203125 -15.953125 L 12.8125 -13.140625 C 11.144531 -14.179688 9.460938 -14.703125 7.765625 -14.703125 C 6.046875 -14.703125 5.1875 -14.117188 5.1875 -12.953125 C 5.1875 -12.378906 5.503906 -11.90625 6.140625 -11.53125 C 6.785156 -11.15625 7.5625 -10.835938 8.46875 -10.578125 C 9.382812 -10.328125 10.296875 -10.03125 11.203125 -9.6875 C 12.117188 -9.351562 12.894531 -8.800781 13.53125 -8.03125 C 14.175781 -7.257812 14.5 -6.28125 14.5 -5.09375 C 14.5 -3.394531 13.851562 -2.097656 12.5625 -1.203125 C 11.28125 -0.316406 9.679688 0.125 7.765625 0.125 C 6.441406 0.125 5.144531 -0.0859375 3.875 -0.515625 C 2.613281 -0.941406 1.550781 -1.539062 0.6875 -2.3125 L 2.046875 -5.015625 C 2.796875 -4.359375 3.710938 -3.832031 4.796875 -3.4375 C 5.890625 -3.039062 6.929688 -2.84375 7.921875 -2.84375 C 8.785156 -2.84375 9.476562 -2.992188 10 -3.296875 C 10.53125 -3.609375 10.796875 -4.082031 10.796875 -4.71875 C 10.796875 -5.382812 10.476562 -5.914062 9.84375 -6.3125 C 9.207031 -6.707031 8.4375 -7.023438 7.53125 -7.265625 C 6.625 -7.503906 5.71875 -7.789062 4.8125 -8.125 C 3.914062 -8.457031 3.148438 -9.003906 2.515625 -9.765625 C 1.890625 -10.523438 1.578125 -11.488281 1.578125 -12.65625 C 1.578125 -14.320312 2.195312 -15.582031 3.4375 -16.4375 C 4.6875 -17.300781 6.226562 -17.734375 8.0625 -17.734375 Z M 8.0625 -17.734375 "/></g></g></g><g fill="#136d43" fill-opacity="1"><g transform="translate(249.191545, 359.884319)"><g><path d="M 10.34375 -17.703125 C 13.050781 -17.703125 15.25 -16.878906 16.9375 -15.234375 C 18.632812 -13.597656 19.484375 -11.445312 19.484375 -8.78125 C 19.484375 -6.144531 18.632812 -4 16.9375 -2.34375 C 15.25 -0.695312 13.050781 0.125 10.34375 0.125 C 7.613281 0.125 5.398438 -0.695312 3.703125 -2.34375 C 2.003906 -4 1.15625 -6.144531 1.15625 -8.78125 C 1.15625 -11.445312 2.003906 -13.597656 3.703125 -15.234375 C 5.398438 -16.878906 7.613281 -17.703125 10.34375 -17.703125 Z M 10.34375 -14.4375 C 8.75 -14.4375 7.453125 -13.90625 6.453125 -12.84375 C 5.453125 -11.789062 4.953125 -10.425781 4.953125 -8.75 C 4.953125 -7.050781 5.453125 -5.671875 6.453125 -4.609375 C 7.453125 -3.554688 8.742188 -3.03125 10.328125 -3.03125 C 11.921875 -3.03125 13.210938 -3.554688 14.203125 -4.609375 C 15.191406 -5.671875 15.6875 -7.050781 15.6875 -8.75 C 15.6875 -10.425781 15.1875 -11.789062 14.1875 -12.84375 C 13.1875 -13.90625 11.90625 -14.4375 10.34375 -14.4375 Z M 10.34375 -14.4375 "/></g></g></g><g fill="#136d43" fill-opacity="1"><g transform="translate(269.938273, 359.884319)"><g><path d="M 6.765625 0 L 2.96875 0 L 2.96875 -24.515625 L 6.765625 -24.515625 Z M 6.765625 0 "/></g></g></g><g fill="#136d43" fill-opacity="1"><g transform="translate(279.783074, 359.884319)"><g><path d="M 18.765625 -17.578125 L 18.765625 0 L 14.96875 0 L 14.96875 -3.4375 C 13.820312 -1.101562 11.726562 0.0820312 8.6875 0.125 C 6.6875 0.125 5.113281 -0.476562 3.96875 -1.6875 C 2.820312 -2.894531 2.25 -4.546875 2.25 -6.640625 L 2.25 -17.578125 L 6.046875 -17.578125 L 6.046875 -7.703125 C 6.046875 -6.378906 6.40625 -5.335938 7.125 -4.578125 C 7.851562 -3.816406 8.859375 -3.4375 10.140625 -3.4375 C 11.617188 -3.457031 12.789062 -3.976562 13.65625 -5 C 14.53125 -6.03125 14.96875 -7.335938 14.96875 -8.921875 L 14.96875 -17.578125 Z M 18.765625 -17.578125 "/></g></g></g><g fill="#136d43" fill-opacity="1"><g transform="translate(301.454815, 359.884319)"><g><path d="M 11.796875 -4.03125 L 12.75 -1.125 C 11.289062 -0.257812 9.847656 0.171875 8.421875 0.171875 C 6.992188 0.171875 5.816406 -0.253906 4.890625 -1.109375 C 3.960938 -1.972656 3.5 -3.253906 3.5 -4.953125 L 3.5 -14.078125 L 1.03125 -14.078125 L 1.03125 -16.90625 L 3.5 -16.90625 L 3.5 -21.734375 L 7.265625 -21.734375 L 7.265625 -16.90625 L 12.453125 -16.90625 L 12.453125 -14.078125 L 7.265625 -14.078125 L 7.265625 -5.640625 C 7.265625 -4.765625 7.414062 -4.148438 7.71875 -3.796875 C 8.03125 -3.441406 8.507812 -3.265625 9.15625 -3.265625 C 9.851562 -3.265625 10.734375 -3.519531 11.796875 -4.03125 Z M 11.796875 -4.03125 "/></g></g></g><g fill="#136d43" fill-opacity="1"><g transform="translate(314.999663, 359.884319)"><g><path d="M 3.109375 -24.265625 C 3.523438 -24.691406 4.050781 -24.90625 4.6875 -24.90625 C 5.320312 -24.90625 5.847656 -24.691406 6.265625 -24.265625 C 6.691406 -23.835938 6.90625 -23.28125 6.90625 -22.59375 C 6.90625 -21.9375 6.691406 -21.390625 6.265625 -20.953125 C 5.847656 -20.523438 5.320312 -20.3125 4.6875 -20.3125 C 4.050781 -20.3125 3.523438 -20.523438 3.109375 -20.953125 C 2.691406 -21.390625 2.484375 -21.9375 2.484375 -22.59375 C 2.484375 -23.28125 2.691406 -23.835938 3.109375 -24.265625 Z M 6.578125 0 L 2.8125 0 L 2.8125 -17.578125 L 6.578125 -17.578125 Z M 6.578125 0 "/></g></g></g><g fill="#136d43" fill-opacity="1"><g transform="translate(324.481055, 359.884319)"><g><path d="M 10.34375 -17.703125 C 13.050781 -17.703125 15.25 -16.878906 16.9375 -15.234375 C 18.632812 -13.597656 19.484375 -11.445312 19.484375 -8.78125 C 19.484375 -6.144531 18.632812 -4 16.9375 -2.34375 C 15.25 -0.695312 13.050781 0.125 10.34375 0.125 C 7.613281 0.125 5.398438 -0.695312 3.703125 -2.34375 C 2.003906 -4 1.15625 -6.144531 1.15625 -8.78125 C 1.15625 -11.445312 2.003906 -13.597656 3.703125 -15.234375 C 5.398438 -16.878906 7.613281 -17.703125 10.34375 -17.703125 Z M 10.34375 -14.4375 C 8.75 -14.4375 7.453125 -13.90625 6.453125 -12.84375 C 5.453125 -11.789062 4.953125 -10.425781 4.953125 -8.75 C 4.953125 -7.050781 5.453125 -5.671875 6.453125 -4.609375 C 7.453125 -3.554688 8.742188 -3.03125 10.328125 -3.03125 C 11.921875 -3.03125 13.210938 -3.554688 14.203125 -4.609375 C 15.191406 -5.671875 15.6875 -7.050781 15.6875 -8.75 C 15.6875 -10.425781 15.1875 -11.789062 14.1875 -12.84375 C 13.1875 -13.90625 11.90625 -14.4375 10.34375 -14.4375 Z M 10.34375 -14.4375 "/></g></g></g><g fill="#136d43" fill-opacity="1"><g transform="translate(345.227783, 359.884319)"><g><path d="M 13.078125 -17.703125 C 15.128906 -17.703125 16.734375 -17.101562 17.890625 -15.90625 C 19.046875 -14.707031 19.625 -13.050781 19.625 -10.9375 L 19.625 0 L 15.828125 0 L 15.828125 -9.875 C 15.828125 -11.195312 15.453125 -12.238281 14.703125 -13 C 13.953125 -13.757812 12.914062 -14.140625 11.59375 -14.140625 C 10.1875 -14.117188 9.035156 -13.664062 8.140625 -12.78125 C 7.242188 -11.90625 6.734375 -10.757812 6.609375 -9.34375 L 6.609375 0 L 2.8125 0 L 2.8125 -17.578125 L 6.609375 -17.578125 L 6.609375 -14.203125 C 7.796875 -16.535156 9.953125 -17.703125 13.078125 -17.703125 Z M 13.078125 -17.703125 "/></g></g></g><g fill="#136d43" fill-opacity="1"><g transform="translate(367.229894, 359.884319)"><g><path d="M 2.109375 -3.453125 C 2.503906 -3.859375 3 -4.0625 3.59375 -4.0625 C 4.195312 -4.0625 4.695312 -3.859375 5.09375 -3.453125 C 5.488281 -3.046875 5.6875 -2.535156 5.6875 -1.921875 C 5.6875 -1.273438 5.488281 -0.742188 5.09375 -0.328125 C 4.695312 0.0859375 4.195312 0.296875 3.59375 0.296875 C 3 0.296875 2.503906 0.0859375 2.109375 -0.328125 C 1.710938 -0.742188 1.515625 -1.273438 1.515625 -1.921875 C 1.515625 -2.535156 1.710938 -3.046875 2.109375 -3.453125 Z M 2.109375 -3.453125 "/></g></g></g><g fill="#136d43" fill-opacity="1"><g transform="translate(374.518716, 359.884319)"><g/></g></g><g fill="#136d43" fill-opacity="1"><g transform="translate(0.0000108667, 399.803156)"><g><path d="M 13.28125 -23.21875 C 14.90625 -23.21875 16.492188 -22.90625 18.046875 -22.28125 C 19.597656 -21.65625 20.9375 -20.78125 22.0625 -19.65625 L 19.78125 -16.8125 C 18.945312 -17.71875 17.957031 -18.429688 16.8125 -18.953125 C 15.664062 -19.484375 14.507812 -19.75 13.34375 -19.75 C 11.03125 -19.75 9.078125 -18.960938 7.484375 -17.390625 C 5.890625 -15.816406 5.09375 -13.894531 5.09375 -11.625 C 5.09375 -9.332031 5.890625 -7.398438 7.484375 -5.828125 C 9.078125 -4.253906 11.03125 -3.46875 13.34375 -3.46875 C 15.738281 -3.46875 17.882812 -4.378906 19.78125 -6.203125 L 22.09375 -3.640625 C 20.90625 -2.460938 19.519531 -1.53125 17.9375 -0.84375 C 16.351562 -0.164062 14.753906 0.171875 13.140625 0.171875 C 9.753906 0.171875 6.90625 -0.957031 4.59375 -3.21875 C 2.28125 -5.476562 1.125 -8.269531 1.125 -11.59375 C 1.125 -14.875 2.296875 -17.628906 4.640625 -19.859375 C 6.984375 -22.097656 9.863281 -23.21875 13.28125 -23.21875 Z M 13.28125 -23.21875 "/></g></g></g><g fill="#136d43" fill-opacity="1"><g transform="translate(23.12534, 399.803156)"><g><path d="M 18.765625 -17.578125 L 18.765625 0 L 14.96875 0 L 14.96875 -3.4375 C 13.820312 -1.101562 11.726562 0.0820312 8.6875 0.125 C 6.6875 0.125 5.113281 -0.476562 3.96875 -1.6875 C 2.820312 -2.894531 2.25 -4.546875 2.25 -6.640625 L 2.25 -17.578125 L 6.046875 -17.578125 L 6.046875 -7.703125 C 6.046875 -6.378906 6.40625 -5.335938 7.125 -4.578125 C 7.851562 -3.816406 8.859375 -3.4375 10.140625 -3.4375 C 11.617188 -3.457031 12.789062 -3.976562 13.65625 -5 C 14.53125 -6.03125 14.96875 -7.335938 14.96875 -8.921875 L 14.96875 -17.578125 Z M 18.765625 -17.578125 "/></g></g></g><g fill="#136d43" fill-opacity="1"><g transform="translate(44.797072, 399.803156)"><g><path d="M 11.796875 -4.03125 L 12.75 -1.125 C 11.289062 -0.257812 9.847656 0.171875 8.421875 0.171875 C 6.992188 0.171875 5.816406 -0.253906 4.890625 -1.109375 C 3.960938 -1.972656 3.5 -3.253906 3.5 -4.953125 L 3.5 -14.078125 L 1.03125 -14.078125 L 1.03125 -16.90625 L 3.5 -16.90625 L 3.5 -21.734375 L 7.265625 -21.734375 L 7.265625 -16.90625 L 12.453125 -16.90625 L 12.453125 -14.078125 L 7.265625 -14.078125 L 7.265625 -5.640625 C 7.265625 -4.765625 7.414062 -4.148438 7.71875 -3.796875 C 8.03125 -3.441406 8.507812 -3.265625 9.15625 -3.265625 C 9.851562 -3.265625 10.734375 -3.519531 11.796875 -4.03125 Z M 11.796875 -4.03125 "/></g></g></g><g fill="#136d43" fill-opacity="1"><g transform="translate(58.34191, 399.803156)"><g/></g></g><g fill="#136d43" fill-opacity="1"><g transform="translate(66.964358, 399.803156)"><g><path d="M 9.671875 -21.375 C 8.992188 -21.375 8.425781 -21.175781 7.96875 -20.78125 C 7.519531 -20.382812 7.296875 -19.789062 7.296875 -19 L 7.296875 -16.90625 L 11.890625 -16.90625 L 11.890625 -14.078125 L 7.296875 -14.078125 L 7.296875 0 L 3.53125 0 L 3.53125 -14.078125 L 1.21875 -14.078125 L 1.21875 -16.90625 L 3.53125 -16.90625 L 3.53125 -18.625 C 3.53125 -20.5625 4.125 -22.050781 5.3125 -23.09375 C 6.507812 -24.144531 7.929688 -24.671875 9.578125 -24.671875 C 11.117188 -24.671875 12.441406 -24.265625 13.546875 -23.453125 L 12.09375 -20.546875 C 11.34375 -21.097656 10.535156 -21.375 9.671875 -21.375 Z M 9.671875 -21.375 "/></g></g></g><g fill="#136d43" fill-opacity="1"><g transform="translate(78.39488, 399.803156)"><g><path d="M 10.34375 -17.703125 C 13.050781 -17.703125 15.25 -16.878906 16.9375 -15.234375 C 18.632812 -13.597656 19.484375 -11.445312 19.484375 -8.78125 C 19.484375 -6.144531 18.632812 -4 16.9375 -2.34375 C 15.25 -0.695312 13.050781 0.125 10.34375 0.125 C 7.613281 0.125 5.398438 -0.695312 3.703125 -2.34375 C 2.003906 -4 1.15625 -6.144531 1.15625 -8.78125 C 1.15625 -11.445312 2.003906 -13.597656 3.703125 -15.234375 C 5.398438 -16.878906 7.613281 -17.703125 10.34375 -17.703125 Z M 10.34375 -14.4375 C 8.75 -14.4375 7.453125 -13.90625 6.453125 -12.84375 C 5.453125 -11.789062 4.953125 -10.425781 4.953125 -8.75 C 4.953125 -7.050781 5.453125 -5.671875 6.453125 -4.609375 C 7.453125 -3.554688 8.742188 -3.03125 10.328125 -3.03125 C 11.921875 -3.03125 13.210938 -3.554688 14.203125 -4.609375 C 15.191406 -5.671875 15.6875 -7.050781 15.6875 -8.75 C 15.6875 -10.425781 15.1875 -11.789062 14.1875 -12.84375 C 13.1875 -13.90625 11.90625 -14.4375 10.34375 -14.4375 Z M 10.34375 -14.4375 "/></g></g></g><g fill="#136d43" fill-opacity="1"><g transform="translate(99.141603, 399.803156)"><g><path d="M 10.34375 -17.703125 C 13.050781 -17.703125 15.25 -16.878906 16.9375 -15.234375 C 18.632812 -13.597656 19.484375 -11.445312 19.484375 -8.78125 C 19.484375 -6.144531 18.632812 -4 16.9375 -2.34375 C 15.25 -0.695312 13.050781 0.125 10.34375 0.125 C 7.613281 0.125 5.398438 -0.695312 3.703125 -2.34375 C 2.003906 -4 1.15625 -6.144531 1.15625 -8.78125 C 1.15625 -11.445312 2.003906 -13.597656 3.703125 -15.234375 C 5.398438 -16.878906 7.613281 -17.703125 10.34375 -17.703125 Z M 10.34375 -14.4375 C 8.75 -14.4375 7.453125 -13.90625 6.453125 -12.84375 C 5.453125 -11.789062 4.953125 -10.425781 4.953125 -8.75 C 4.953125 -7.050781 5.453125 -5.671875 6.453125 -4.609375 C 7.453125 -3.554688 8.742188 -3.03125 10.328125 -3.03125 C 11.921875 -3.03125 13.210938 -3.554688 14.203125 -4.609375 C 15.191406 -5.671875 15.6875 -7.050781 15.6875 -8.75 C 15.6875 -10.425781 15.1875 -11.789062 14.1875 -12.84375 C 13.1875 -13.90625 11.90625 -14.4375 10.34375 -14.4375 Z M 10.34375 -14.4375 "/></g></g></g><g fill="#136d43" fill-opacity="1"><g transform="translate(119.888321, 399.803156)"><g><path d="M 19.546875 -24.515625 L 19.546875 0 L 15.75 0 L 15.75 -3 C 14.457031 -0.882812 12.398438 0.171875 9.578125 0.171875 C 7.066406 0.171875 5.035156 -0.660156 3.484375 -2.328125 C 1.929688 -3.992188 1.15625 -6.171875 1.15625 -8.859375 C 1.15625 -11.492188 1.925781 -13.628906 3.46875 -15.265625 C 5.007812 -16.910156 7.023438 -17.734375 9.515625 -17.734375 C 12.328125 -17.734375 14.40625 -16.664062 15.75 -14.53125 L 15.75 -24.515625 Z M 6.484375 -4.59375 C 7.492188 -3.53125 8.789062 -3 10.375 -3 C 11.957031 -3 13.25 -3.53125 14.25 -4.59375 C 15.25 -5.664062 15.75 -7.039062 15.75 -8.71875 C 15.75 -10.414062 15.25 -11.800781 14.25 -12.875 C 13.25 -13.957031 11.957031 -14.5 10.375 -14.5 C 8.789062 -14.5 7.492188 -13.957031 6.484375 -12.875 C 5.484375 -11.800781 4.972656 -10.414062 4.953125 -8.71875 C 4.972656 -7.039062 5.484375 -5.664062 6.484375 -4.59375 Z M 6.484375 -4.59375 "/></g></g></g><g fill="#136d43" fill-opacity="1"><g transform="translate(142.518102, 399.803156)"><g/></g></g><g fill="#136d43" fill-opacity="1"><g transform="translate(151.14055, 399.803156)"><g><path d="M 23.25 0 L 19.328125 0 L 14.859375 -13.015625 L 10.40625 0 L 6.5 0 L 0.03125 -17.578125 L 3.9375 -17.578125 L 8.484375 -3.765625 L 12.921875 -17.578125 L 16.84375 -17.578125 L 21.3125 -3.765625 L 25.796875 -17.578125 L 29.65625 -17.578125 Z M 23.25 0 "/></g></g></g><g fill="#136d43" fill-opacity="1"><g transform="translate(180.740969, 399.803156)"><g><path d="M 13.34375 0 L 13.34375 -2.140625 C 12.09375 -0.597656 10.15625 0.171875 7.53125 0.171875 C 5.65625 0.171875 4.15625 -0.335938 3.03125 -1.359375 C 1.914062 -2.390625 1.359375 -3.695312 1.359375 -5.28125 C 1.359375 -6.894531 1.941406 -8.171875 3.109375 -9.109375 C 4.273438 -10.054688 5.90625 -10.539062 8 -10.5625 L 13.3125 -10.5625 L 13.3125 -11.09375 C 13.3125 -12.21875 12.953125 -13.085938 12.234375 -13.703125 C 11.523438 -14.328125 10.484375 -14.640625 9.109375 -14.640625 C 7.421875 -14.640625 5.695312 -14.039062 3.9375 -12.84375 L 2.375 -15.484375 C 3.71875 -16.285156 4.921875 -16.851562 5.984375 -17.1875 C 7.054688 -17.53125 8.375 -17.703125 9.9375 -17.703125 C 12.1875 -17.703125 13.925781 -17.15625 15.15625 -16.0625 C 16.394531 -14.976562 17.023438 -13.46875 17.046875 -11.53125 L 17.078125 0 Z M 8.328125 -2.84375 C 9.671875 -2.84375 10.804688 -3.15625 11.734375 -3.78125 C 12.671875 -4.40625 13.195312 -5.203125 13.3125 -6.171875 L 13.3125 -7.796875 L 8.5625 -7.796875 C 7.300781 -7.796875 6.378906 -7.613281 5.796875 -7.25 C 5.210938 -6.882812 4.921875 -6.285156 4.921875 -5.453125 C 4.921875 -4.660156 5.222656 -4.023438 5.828125 -3.546875 C 6.429688 -3.078125 7.265625 -2.84375 8.328125 -2.84375 Z M 8.328125 -2.84375 "/></g></g></g><g fill="#136d43" fill-opacity="1"><g transform="translate(200.199297, 399.803156)"><g><path d="M 8.0625 -17.734375 C 10.476562 -17.734375 12.523438 -17.140625 14.203125 -15.953125 L 12.8125 -13.140625 C 11.144531 -14.179688 9.460938 -14.703125 7.765625 -14.703125 C 6.046875 -14.703125 5.1875 -14.117188 5.1875 -12.953125 C 5.1875 -12.378906 5.503906 -11.90625 6.140625 -11.53125 C 6.785156 -11.15625 7.5625 -10.835938 8.46875 -10.578125 C 9.382812 -10.328125 10.296875 -10.03125 11.203125 -9.6875 C 12.117188 -9.351562 12.894531 -8.800781 13.53125 -8.03125 C 14.175781 -7.257812 14.5 -6.28125 14.5 -5.09375 C 14.5 -3.394531 13.851562 -2.097656 12.5625 -1.203125 C 11.28125 -0.316406 9.679688 0.125 7.765625 0.125 C 6.441406 0.125 5.144531 -0.0859375 3.875 -0.515625 C 2.613281 -0.941406 1.550781 -1.539062 0.6875 -2.3125 L 2.046875 -5.015625 C 2.796875 -4.359375 3.710938 -3.832031 4.796875 -3.4375 C 5.890625 -3.039062 6.929688 -2.84375 7.921875 -2.84375 C 8.785156 -2.84375 9.476562 -2.992188 10 -3.296875 C 10.53125 -3.609375 10.796875 -4.082031 10.796875 -4.71875 C 10.796875 -5.382812 10.476562 -5.914062 9.84375 -6.3125 C 9.207031 -6.707031 8.4375 -7.023438 7.53125 -7.265625 C 6.625 -7.503906 5.71875 -7.789062 4.8125 -8.125 C 3.914062 -8.457031 3.148438 -9.003906 2.515625 -9.765625 C 1.890625 -10.523438 1.578125 -11.488281 1.578125 -12.65625 C 1.578125 -14.320312 2.195312 -15.582031 3.4375 -16.4375 C 4.6875 -17.300781 6.226562 -17.734375 8.0625 -17.734375 Z M 8.0625 -17.734375 "/></g></g></g><g fill="#136d43" fill-opacity="1"><g transform="translate(215.825422, 399.803156)"><g><path d="M 11.796875 -4.03125 L 12.75 -1.125 C 11.289062 -0.257812 9.847656 0.171875 8.421875 0.171875 C 6.992188 0.171875 5.816406 -0.253906 4.890625 -1.109375 C 3.960938 -1.972656 3.5 -3.253906 3.5 -4.953125 L 3.5 -14.078125 L 1.03125 -14.078125 L 1.03125 -16.90625 L 3.5 -16.90625 L 3.5 -21.734375 L 7.265625 -21.734375 L 7.265625 -16.90625 L 12.453125 -16.90625 L 12.453125 -14.078125 L 7.265625 -14.078125 L 7.265625 -5.640625 C 7.265625 -4.765625 7.414062 -4.148438 7.71875 -3.796875 C 8.03125 -3.441406 8.507812 -3.265625 9.15625 -3.265625 C 9.851562 -3.265625 10.734375 -3.519531 11.796875 -4.03125 Z M 11.796875 -4.03125 "/></g></g></g><g fill="#136d43" fill-opacity="1"><g transform="translate(229.37027, 399.803156)"><g><path d="M 10.046875 -17.703125 C 13.054688 -17.703125 15.238281 -16.789062 16.59375 -14.96875 C 17.945312 -13.15625 18.503906 -10.609375 18.265625 -7.328125 L 4.984375 -7.328125 C 5.296875 -5.960938 5.9375 -4.890625 6.90625 -4.109375 C 7.875 -3.328125 9.050781 -2.9375 10.4375 -2.9375 C 12.414062 -2.9375 14.066406 -3.617188 15.390625 -4.984375 L 17.40625 -2.84375 C 15.601562 -0.863281 13.179688 0.125 10.140625 0.125 C 7.429688 0.125 5.253906 -0.691406 3.609375 -2.328125 C 1.972656 -3.972656 1.15625 -6.113281 1.15625 -8.75 C 1.15625 -11.394531 1.976562 -13.539062 3.625 -15.1875 C 5.28125 -16.84375 7.421875 -17.679688 10.046875 -17.703125 Z M 4.921875 -10.109375 L 14.96875 -10.109375 C 14.894531 -11.515625 14.414062 -12.625 13.53125 -13.4375 C 12.65625 -14.257812 11.503906 -14.671875 10.078125 -14.671875 C 8.691406 -14.671875 7.539062 -14.257812 6.625 -13.4375 C 5.707031 -12.625 5.140625 -11.515625 4.921875 -10.109375 Z M 4.921875 -10.109375 "/></g></g></g><g fill="#136d43" fill-opacity="1"><g transform="translate(248.894656, 399.803156)"><g><path d="M 2.109375 -3.453125 C 2.503906 -3.859375 3 -4.0625 3.59375 -4.0625 C 4.195312 -4.0625 4.695312 -3.859375 5.09375 -3.453125 C 5.488281 -3.046875 5.6875 -2.535156 5.6875 -1.921875 C 5.6875 -1.273438 5.488281 -0.742188 5.09375 -0.328125 C 4.695312 0.0859375 4.195312 0.296875 3.59375 0.296875 C 3 0.296875 2.503906 0.0859375 2.109375 -0.328125 C 1.710938 -0.742188 1.515625 -1.273438 1.515625 -1.921875 C 1.515625 -2.535156 1.710938 -3.046875 2.109375 -3.453125 Z M 2.109375 -3.453125 "/></g></g></g><g fill="#136d43" fill-opacity="1"><g transform="translate(256.181734, 399.803156)"><g/></g></g><g fill="#136d43" fill-opacity="1"><g transform="translate(0.0000108667, 439.721992)"><g><path d="M 10.640625 -23.28125 C 13.628906 -23.28125 16.328125 -22.488281 18.734375 -20.90625 L 17.109375 -17.46875 C 14.753906 -18.90625 12.5 -19.625 10.34375 -19.625 C 9.175781 -19.625 8.253906 -19.410156 7.578125 -18.984375 C 6.910156 -18.566406 6.578125 -17.972656 6.578125 -17.203125 C 6.578125 -16.429688 6.882812 -15.773438 7.5 -15.234375 C 8.113281 -14.703125 8.882812 -14.304688 9.8125 -14.046875 C 10.738281 -13.796875 11.738281 -13.476562 12.8125 -13.09375 C 13.894531 -12.707031 14.894531 -12.300781 15.8125 -11.875 C 16.738281 -11.445312 17.503906 -10.773438 18.109375 -9.859375 C 18.722656 -8.941406 19.03125 -7.835938 19.03125 -6.546875 C 19.03125 -4.515625 18.21875 -2.894531 16.59375 -1.6875 C 14.976562 -0.476562 12.882812 0.125 10.3125 0.125 C 8.539062 0.125 6.828125 -0.203125 5.171875 -0.859375 C 3.523438 -1.515625 2.085938 -2.40625 0.859375 -3.53125 L 2.546875 -6.90625 C 3.710938 -5.820312 4.992188 -4.988281 6.390625 -4.40625 C 7.785156 -3.820312 9.113281 -3.53125 10.375 -3.53125 C 11.738281 -3.53125 12.800781 -3.773438 13.5625 -4.265625 C 14.320312 -4.765625 14.703125 -5.457031 14.703125 -6.34375 C 14.703125 -7.132812 14.390625 -7.800781 13.765625 -8.34375 C 13.148438 -8.882812 12.378906 -9.28125 11.453125 -9.53125 C 10.535156 -9.78125 9.535156 -10.085938 8.453125 -10.453125 C 7.378906 -10.816406 6.378906 -11.203125 5.453125 -11.609375 C 4.523438 -12.015625 3.753906 -12.671875 3.140625 -13.578125 C 2.523438 -14.484375 2.21875 -15.570312 2.21875 -16.84375 C 2.21875 -18.800781 2.988281 -20.363281 4.53125 -21.53125 C 6.070312 -22.695312 8.109375 -23.28125 10.640625 -23.28125 Z M 10.640625 -23.28125 "/></g></g></g><g fill="#136d43" fill-opacity="1"><g transform="translate(20.647634, 439.721992)"><g><path d="M 18.765625 -17.578125 L 18.765625 0 L 14.96875 0 L 14.96875 -3.4375 C 13.820312 -1.101562 11.726562 0.0820312 8.6875 0.125 C 6.6875 0.125 5.113281 -0.476562 3.96875 -1.6875 C 2.820312 -2.894531 2.25 -4.546875 2.25 -6.640625 L 2.25 -17.578125 L 6.046875 -17.578125 L 6.046875 -7.703125 C 6.046875 -6.378906 6.40625 -5.335938 7.125 -4.578125 C 7.851562 -3.816406 8.859375 -3.4375 10.140625 -3.4375 C 11.617188 -3.457031 12.789062 -3.976562 13.65625 -5 C 14.53125 -6.03125 14.96875 -7.335938 14.96875 -8.921875 L 14.96875 -17.578125 Z M 18.765625 -17.578125 "/></g></g></g><g fill="#136d43" fill-opacity="1"><g transform="translate(42.319365, 439.721992)"><g><path d="M 12.921875 -17.703125 C 15.398438 -17.703125 17.414062 -16.867188 18.96875 -15.203125 C 20.53125 -13.546875 21.3125 -11.382812 21.3125 -8.71875 C 21.3125 -6.070312 20.550781 -3.9375 19.03125 -2.3125 C 17.507812 -0.6875 15.492188 0.125 12.984375 0.125 C 10.160156 0.125 8.085938 -0.925781 6.765625 -3.03125 L 6.765625 6.40625 L 2.96875 6.40625 L 2.96875 -17.578125 L 6.765625 -17.578125 L 6.765625 -14.53125 C 8.085938 -16.644531 10.140625 -17.703125 12.921875 -17.703125 Z M 8.265625 -4.703125 C 9.273438 -3.640625 10.5625 -3.109375 12.125 -3.109375 C 13.6875 -3.109375 14.96875 -3.640625 15.96875 -4.703125 C 16.96875 -5.773438 17.46875 -7.160156 17.46875 -8.859375 C 17.46875 -10.503906 16.96875 -11.859375 15.96875 -12.921875 C 14.96875 -13.992188 13.6875 -14.53125 12.125 -14.53125 C 10.5625 -14.53125 9.273438 -13.992188 8.265625 -12.921875 C 7.265625 -11.859375 6.765625 -10.503906 6.765625 -8.859375 C 6.765625 -7.160156 7.265625 -5.773438 8.265625 -4.703125 Z M 8.265625 -4.703125 "/></g></g></g><g fill="#136d43" fill-opacity="1"><g transform="translate(64.88307, 439.721992)"><g><path d="M 12.921875 -17.703125 C 15.398438 -17.703125 17.414062 -16.867188 18.96875 -15.203125 C 20.53125 -13.546875 21.3125 -11.382812 21.3125 -8.71875 C 21.3125 -6.070312 20.550781 -3.9375 19.03125 -2.3125 C 17.507812 -0.6875 15.492188 0.125 12.984375 0.125 C 10.160156 0.125 8.085938 -0.925781 6.765625 -3.03125 L 6.765625 6.40625 L 2.96875 6.40625 L 2.96875 -17.578125 L 6.765625 -17.578125 L 6.765625 -14.53125 C 8.085938 -16.644531 10.140625 -17.703125 12.921875 -17.703125 Z M 8.265625 -4.703125 C 9.273438 -3.640625 10.5625 -3.109375 12.125 -3.109375 C 13.6875 -3.109375 14.96875 -3.640625 15.96875 -4.703125 C 16.96875 -5.773438 17.46875 -7.160156 17.46875 -8.859375 C 17.46875 -10.503906 16.96875 -11.859375 15.96875 -12.921875 C 14.96875 -13.992188 13.6875 -14.53125 12.125 -14.53125 C 10.5625 -14.53125 9.273438 -13.992188 8.265625 -12.921875 C 7.265625 -11.859375 6.765625 -10.503906 6.765625 -8.859375 C 6.765625 -7.160156 7.265625 -5.773438 8.265625 -4.703125 Z M 8.265625 -4.703125 "/></g></g></g><g fill="#136d43" fill-opacity="1"><g transform="translate(87.446778, 439.721992)"><g><path d="M 10.34375 -17.703125 C 13.050781 -17.703125 15.25 -16.878906 16.9375 -15.234375 C 18.632812 -13.597656 19.484375 -11.445312 19.484375 -8.78125 C 19.484375 -6.144531 18.632812 -4 16.9375 -2.34375 C 15.25 -0.695312 13.050781 0.125 10.34375 0.125 C 7.613281 0.125 5.398438 -0.695312 3.703125 -2.34375 C 2.003906 -4 1.15625 -6.144531 1.15625 -8.78125 C 1.15625 -11.445312 2.003906 -13.597656 3.703125 -15.234375 C 5.398438 -16.878906 7.613281 -17.703125 10.34375 -17.703125 Z M 10.34375 -14.4375 C 8.75 -14.4375 7.453125 -13.90625 6.453125 -12.84375 C 5.453125 -11.789062 4.953125 -10.425781 4.953125 -8.75 C 4.953125 -7.050781 5.453125 -5.671875 6.453125 -4.609375 C 7.453125 -3.554688 8.742188 -3.03125 10.328125 -3.03125 C 11.921875 -3.03125 13.210938 -3.554688 14.203125 -4.609375 C 15.191406 -5.671875 15.6875 -7.050781 15.6875 -8.75 C 15.6875 -10.425781 15.1875 -11.789062 14.1875 -12.84375 C 13.1875 -13.90625 11.90625 -14.4375 10.34375 -14.4375 Z M 10.34375 -14.4375 "/></g></g></g><g fill="#136d43" fill-opacity="1"><g transform="translate(108.193496, 439.721992)"><g><path d="M 6.609375 -17.578125 L 6.609375 -14.078125 C 7.816406 -16.492188 9.84375 -17.703125 12.6875 -17.703125 L 12.6875 -14.078125 C 10.945312 -14.160156 9.535156 -13.75 8.453125 -12.84375 C 7.378906 -11.945312 6.765625 -10.726562 6.609375 -9.1875 L 6.609375 0 L 2.8125 0 L 2.8125 -17.578125 Z M 6.609375 -17.578125 "/></g></g></g><g fill="#136d43" fill-opacity="1"><g transform="translate(121.308867, 439.721992)"><g><path d="M 11.796875 -4.03125 L 12.75 -1.125 C 11.289062 -0.257812 9.847656 0.171875 8.421875 0.171875 C 6.992188 0.171875 5.816406 -0.253906 4.890625 -1.109375 C 3.960938 -1.972656 3.5 -3.253906 3.5 -4.953125 L 3.5 -14.078125 L 1.03125 -14.078125 L 1.03125 -16.90625 L 3.5 -16.90625 L 3.5 -21.734375 L 7.265625 -21.734375 L 7.265625 -16.90625 L 12.453125 -16.90625 L 12.453125 -14.078125 L 7.265625 -14.078125 L 7.265625 -5.640625 C 7.265625 -4.765625 7.414062 -4.148438 7.71875 -3.796875 C 8.03125 -3.441406 8.507812 -3.265625 9.15625 -3.265625 C 9.851562 -3.265625 10.734375 -3.519531 11.796875 -4.03125 Z M 11.796875 -4.03125 "/></g></g></g><g fill="#136d43" fill-opacity="1"><g transform="translate(134.853705, 439.721992)"><g/></g></g><g fill="#136d43" fill-opacity="1"><g transform="translate(143.476152, 439.721992)"><g><path d="M 6.765625 0 L 2.96875 0 L 2.96875 -24.515625 L 6.765625 -24.515625 Z M 6.765625 0 "/></g></g></g><g fill="#136d43" fill-opacity="1"><g transform="translate(153.320943, 439.721992)"><g><path d="M 10.34375 -17.703125 C 13.050781 -17.703125 15.25 -16.878906 16.9375 -15.234375 C 18.632812 -13.597656 19.484375 -11.445312 19.484375 -8.78125 C 19.484375 -6.144531 18.632812 -4 16.9375 -2.34375 C 15.25 -0.695312 13.050781 0.125 10.34375 0.125 C 7.613281 0.125 5.398438 -0.695312 3.703125 -2.34375 C 2.003906 -4 1.15625 -6.144531 1.15625 -8.78125 C 1.15625 -11.445312 2.003906 -13.597656 3.703125 -15.234375 C 5.398438 -16.878906 7.613281 -17.703125 10.34375 -17.703125 Z M 10.34375 -14.4375 C 8.75 -14.4375 7.453125 -13.90625 6.453125 -12.84375 C 5.453125 -11.789062 4.953125 -10.425781 4.953125 -8.75 C 4.953125 -7.050781 5.453125 -5.671875 6.453125 -4.609375 C 7.453125 -3.554688 8.742188 -3.03125 10.328125 -3.03125 C 11.921875 -3.03125 13.210938 -3.554688 14.203125 -4.609375 C 15.191406 -5.671875 15.6875 -7.050781 15.6875 -8.75 C 15.6875 -10.425781 15.1875 -11.789062 14.1875 -12.84375 C 13.1875 -13.90625 11.90625 -14.4375 10.34375 -14.4375 Z M 10.34375 -14.4375 "/></g></g></g><g fill="#136d43" fill-opacity="1"><g transform="translate(174.067661, 439.721992)"><g><path d="M 10.015625 -17.703125 C 13.179688 -17.703125 15.601562 -16.742188 17.28125 -14.828125 L 15.1875 -12.390625 C 13.875 -13.734375 12.203125 -14.394531 10.171875 -14.375 C 8.648438 -14.375 7.398438 -13.847656 6.421875 -12.796875 C 5.441406 -11.753906 4.953125 -10.40625 4.953125 -8.75 C 4.953125 -7.101562 5.441406 -5.753906 6.421875 -4.703125 C 7.398438 -3.660156 8.648438 -3.140625 10.171875 -3.140625 C 12.421875 -3.140625 14.148438 -3.84375 15.359375 -5.25 L 17.46875 -3.140625 C 15.820312 -0.960938 13.335938 0.125 10.015625 0.125 C 7.390625 0.125 5.253906 -0.691406 3.609375 -2.328125 C 1.972656 -3.972656 1.15625 -6.113281 1.15625 -8.75 C 1.15625 -11.414062 1.972656 -13.570312 3.609375 -15.21875 C 5.253906 -16.875 7.390625 -17.703125 10.015625 -17.703125 Z M 10.015625 -17.703125 "/></g></g></g><g fill="#136d43" fill-opacity="1"><g transform="translate(192.799181, 439.721992)"><g><path d="M 13.34375 0 L 13.34375 -2.140625 C 12.09375 -0.597656 10.15625 0.171875 7.53125 0.171875 C 5.65625 0.171875 4.15625 -0.335938 3.03125 -1.359375 C 1.914062 -2.390625 1.359375 -3.695312 1.359375 -5.28125 C 1.359375 -6.894531 1.941406 -8.171875 3.109375 -9.109375 C 4.273438 -10.054688 5.90625 -10.539062 8 -10.5625 L 13.3125 -10.5625 L 13.3125 -11.09375 C 13.3125 -12.21875 12.953125 -13.085938 12.234375 -13.703125 C 11.523438 -14.328125 10.484375 -14.640625 9.109375 -14.640625 C 7.421875 -14.640625 5.695312 -14.039062 3.9375 -12.84375 L 2.375 -15.484375 C 3.71875 -16.285156 4.921875 -16.851562 5.984375 -17.1875 C 7.054688 -17.53125 8.375 -17.703125 9.9375 -17.703125 C 12.1875 -17.703125 13.925781 -17.15625 15.15625 -16.0625 C 16.394531 -14.976562 17.023438 -13.46875 17.046875 -11.53125 L 17.078125 0 Z M 8.328125 -2.84375 C 9.671875 -2.84375 10.804688 -3.15625 11.734375 -3.78125 C 12.671875 -4.40625 13.195312 -5.203125 13.3125 -6.171875 L 13.3125 -7.796875 L 8.5625 -7.796875 C 7.300781 -7.796875 6.378906 -7.613281 5.796875 -7.25 C 5.210938 -6.882812 4.921875 -6.285156 4.921875 -5.453125 C 4.921875 -4.660156 5.222656 -4.023438 5.828125 -3.546875 C 6.429688 -3.078125 7.265625 -2.84375 8.328125 -2.84375 Z M 8.328125 -2.84375 "/></g></g></g><g fill="#136d43" fill-opacity="1"><g transform="translate(212.257509, 439.721992)"><g><path d="M 6.765625 0 L 2.96875 0 L 2.96875 -24.515625 L 6.765625 -24.515625 Z M 6.765625 0 "/></g></g></g><g fill="#136d43" fill-opacity="1"><g transform="translate(222.10231, 439.721992)"><g/></g></g><g fill="#136d43" fill-opacity="1"><g transform="translate(230.724769, 439.721992)"><g><path d="M 10.015625 -17.703125 C 13.179688 -17.703125 15.601562 -16.742188 17.28125 -14.828125 L 15.1875 -12.390625 C 13.875 -13.734375 12.203125 -14.394531 10.171875 -14.375 C 8.648438 -14.375 7.398438 -13.847656 6.421875 -12.796875 C 5.441406 -11.753906 4.953125 -10.40625 4.953125 -8.75 C 4.953125 -7.101562 5.441406 -5.753906 6.421875 -4.703125 C 7.398438 -3.660156 8.648438 -3.140625 10.171875 -3.140625 C 12.421875 -3.140625 14.148438 -3.84375 15.359375 -5.25 L 17.46875 -3.140625 C 15.820312 -0.960938 13.335938 0.125 10.015625 0.125 C 7.390625 0.125 5.253906 -0.691406 3.609375 -2.328125 C 1.972656 -3.972656 1.15625 -6.113281 1.15625 -8.75 C 1.15625 -11.414062 1.972656 -13.570312 3.609375 -15.21875 C 5.253906 -16.875 7.390625 -17.703125 10.015625 -17.703125 Z M 10.015625 -17.703125 "/></g></g></g><g fill="#136d43" fill-opacity="1"><g transform="translate(249.456299, 439.721992)"><g><path d="M 10.34375 -17.703125 C 13.050781 -17.703125 15.25 -16.878906 16.9375 -15.234375 C 18.632812 -13.597656 19.484375 -11.445312 19.484375 -8.78125 C 19.484375 -6.144531 18.632812 -4 16.9375 -2.34375 C 15.25 -0.695312 13.050781 0.125 10.34375 0.125 C 7.613281 0.125 5.398438 -0.695312 3.703125 -2.34375 C 2.003906 -4 1.15625 -6.144531 1.15625 -8.78125 C 1.15625 -11.445312 2.003906 -13.597656 3.703125 -15.234375 C 5.398438 -16.878906 7.613281 -17.703125 10.34375 -17.703125 Z M 10.34375 -14.4375 C 8.75 -14.4375 7.453125 -13.90625 6.453125 -12.84375 C 5.453125 -11.789062 4.953125 -10.425781 4.953125 -8.75 C 4.953125 -7.050781 5.453125 -5.671875 6.453125 -4.609375 C 7.453125 -3.554688 8.742188 -3.03125 10.328125 -3.03125 C 11.921875 -3.03125 13.210938 -3.554688 14.203125 -4.609375 C 15.191406 -5.671875 15.6875 -7.050781 15.6875 -8.75 C 15.6875 -10.425781 15.1875 -11.789062 14.1875 -12.84375 C 13.1875 -13.90625 11.90625 -14.4375 10.34375 -14.4375 Z M 10.34375 -14.4375 "/></g></g></g><g fill="#136d43" fill-opacity="1"><g transform="translate(270.203027, 439.721992)"><g><path d="M 25.734375 -17.703125 C 27.734375 -17.703125 29.304688 -17.097656 30.453125 -15.890625 C 31.597656 -14.679688 32.171875 -13.03125 32.171875 -10.9375 L 32.171875 0 L 28.375 0 L 28.375 -9.875 C 28.375 -11.21875 28.003906 -12.269531 27.265625 -13.03125 C 26.523438 -13.789062 25.507812 -14.171875 24.21875 -14.171875 C 22.738281 -14.128906 21.5625 -13.59375 20.6875 -12.5625 C 19.820312 -11.539062 19.390625 -10.25 19.390625 -8.6875 L 19.390625 0 L 15.59375 0 L 15.59375 -9.875 C 15.59375 -11.21875 15.222656 -12.269531 14.484375 -13.03125 C 13.742188 -13.789062 12.738281 -14.171875 11.46875 -14.171875 C 9.96875 -14.128906 8.773438 -13.59375 7.890625 -12.5625 C 7.015625 -11.539062 6.578125 -10.25 6.578125 -8.6875 L 6.578125 0 L 2.8125 0 L 2.8125 -17.578125 L 6.578125 -17.578125 L 6.578125 -14.171875 C 7.742188 -16.523438 9.867188 -17.703125 12.953125 -17.703125 C 14.515625 -17.703125 15.816406 -17.332031 16.859375 -16.59375 C 17.910156 -15.851562 18.644531 -14.816406 19.0625 -13.484375 C 20.132812 -16.296875 22.359375 -17.703125 25.734375 -17.703125 Z M 25.734375 -17.703125 "/></g></g></g><g fill="#136d43" fill-opacity="1"><g transform="translate(304.758876, 439.721992)"><g><path d="M 25.734375 -17.703125 C 27.734375 -17.703125 29.304688 -17.097656 30.453125 -15.890625 C 31.597656 -14.679688 32.171875 -13.03125 32.171875 -10.9375 L 32.171875 0 L 28.375 0 L 28.375 -9.875 C 28.375 -11.21875 28.003906 -12.269531 27.265625 -13.03125 C 26.523438 -13.789062 25.507812 -14.171875 24.21875 -14.171875 C 22.738281 -14.128906 21.5625 -13.59375 20.6875 -12.5625 C 19.820312 -11.539062 19.390625 -10.25 19.390625 -8.6875 L 19.390625 0 L 15.59375 0 L 15.59375 -9.875 C 15.59375 -11.21875 15.222656 -12.269531 14.484375 -13.03125 C 13.742188 -13.789062 12.738281 -14.171875 11.46875 -14.171875 C 9.96875 -14.128906 8.773438 -13.59375 7.890625 -12.5625 C 7.015625 -11.539062 6.578125 -10.25 6.578125 -8.6875 L 6.578125 0 L 2.8125 0 L 2.8125 -17.578125 L 6.578125 -17.578125 L 6.578125 -14.171875 C 7.742188 -16.523438 9.867188 -17.703125 12.953125 -17.703125 C 14.515625 -17.703125 15.816406 -17.332031 16.859375 -16.59375 C 17.910156 -15.851562 18.644531 -14.816406 19.0625 -13.484375 C 20.132812 -16.296875 22.359375 -17.703125 25.734375 -17.703125 Z M 25.734375 -17.703125 "/></g></g></g><g fill="#136d43" fill-opacity="1"><g transform="translate(339.314724, 439.721992)"><g><path d="M 18.765625 -17.578125 L 18.765625 0 L 14.96875 0 L 14.96875 -3.4375 C 13.820312 -1.101562 11.726562 0.0820312 8.6875 0.125 C 6.6875 0.125 5.113281 -0.476562 3.96875 -1.6875 C 2.820312 -2.894531 2.25 -4.546875 2.25 -6.640625 L 2.25 -17.578125 L 6.046875 -17.578125 L 6.046875 -7.703125 C 6.046875 -6.378906 6.40625 -5.335938 7.125 -4.578125 C 7.851562 -3.816406 8.859375 -3.4375 10.140625 -3.4375 C 11.617188 -3.457031 12.789062 -3.976562 13.65625 -5 C 14.53125 -6.03125 14.96875 -7.335938 14.96875 -8.921875 L 14.96875 -17.578125 Z M 18.765625 -17.578125 "/></g></g></g><g fill="#136d43" fill-opacity="1"><g transform="translate(360.986444, 439.721992)"><g><path d="M 13.078125 -17.703125 C 15.128906 -17.703125 16.734375 -17.101562 17.890625 -15.90625 C 19.046875 -14.707031 19.625 -13.050781 19.625 -10.9375 L 19.625 0 L 15.828125 0 L 15.828125 -9.875 C 15.828125 -11.195312 15.453125 -12.238281 14.703125 -13 C 13.953125 -13.757812 12.914062 -14.140625 11.59375 -14.140625 C 10.1875 -14.117188 9.035156 -13.664062 8.140625 -12.78125 C 7.242188 -11.90625 6.734375 -10.757812 6.609375 -9.34375 L 6.609375 0 L 2.8125 0 L 2.8125 -17.578125 L 6.609375 -17.578125 L 6.609375 -14.203125 C 7.796875 -16.535156 9.953125 -17.703125 13.078125 -17.703125 Z M 13.078125 -17.703125 "/></g></g></g><g fill="#136d43" fill-opacity="1"><g transform="translate(382.988533, 439.721992)"><g><path d="M 3.109375 -24.265625 C 3.523438 -24.691406 4.050781 -24.90625 4.6875 -24.90625 C 5.320312 -24.90625 5.847656 -24.691406 6.265625 -24.265625 C 6.691406 -23.835938 6.90625 -23.28125 6.90625 -22.59375 C 6.90625 -21.9375 6.691406 -21.390625 6.265625 -20.953125 C 5.847656 -20.523438 5.320312 -20.3125 4.6875 -20.3125 C 4.050781 -20.3125 3.523438 -20.523438 3.109375 -20.953125 C 2.691406 -21.390625 2.484375 -21.9375 2.484375 -22.59375 C 2.484375 -23.28125 2.691406 -23.835938 3.109375 -24.265625 Z M 6.578125 0 L 2.8125 0 L 2.8125 -17.578125 L 6.578125 -17.578125 Z M 6.578125 0 "/></g></g></g><g fill="#136d43" fill-opacity="1"><g transform="translate(392.469904, 439.721992)"><g><path d="M 11.796875 -4.03125 L 12.75 -1.125 C 11.289062 -0.257812 9.847656 0.171875 8.421875 0.171875 C 6.992188 0.171875 5.816406 -0.253906 4.890625 -1.109375 C 3.960938 -1.972656 3.5 -3.253906 3.5 -4.953125 L 3.5 -14.078125 L 1.03125 -14.078125 L 1.03125 -16.90625 L 3.5 -16.90625 L 3.5 -21.734375 L 7.265625 -21.734375 L 7.265625 -16.90625 L 12.453125 -16.90625 L 12.453125 -14.078125 L 7.265625 -14.078125 L 7.265625 -5.640625 C 7.265625 -4.765625 7.414062 -4.148438 7.71875 -3.796875 C 8.03125 -3.441406 8.507812 -3.265625 9.15625 -3.265625 C 9.851562 -3.265625 10.734375 -3.519531 11.796875 -4.03125 Z M 11.796875 -4.03125 "/></g></g></g><g fill="#136d43" fill-opacity="1"><g transform="translate(406.014731, 439.721992)"><g><path d="M 3.109375 -24.265625 C 3.523438 -24.691406 4.050781 -24.90625 4.6875 -24.90625 C 5.320312 -24.90625 5.847656 -24.691406 6.265625 -24.265625 C 6.691406 -23.835938 6.90625 -23.28125 6.90625 -22.59375 C 6.90625 -21.9375 6.691406 -21.390625 6.265625 -20.953125 C 5.847656 -20.523438 5.320312 -20.3125 4.6875 -20.3125 C 4.050781 -20.3125 3.523438 -20.523438 3.109375 -20.953125 C 2.691406 -21.390625 2.484375 -21.9375 2.484375 -22.59375 C 2.484375 -23.28125 2.691406 -23.835938 3.109375 -24.265625 Z M 6.578125 0 L 2.8125 0 L 2.8125 -17.578125 L 6.578125 -17.578125 Z M 6.578125 0 "/></g></g></g><g fill="#136d43" fill-opacity="1"><g transform="translate(415.496102, 439.721992)"><g><path d="M 10.046875 -17.703125 C 13.054688 -17.703125 15.238281 -16.789062 16.59375 -14.96875 C 17.945312 -13.15625 18.503906 -10.609375 18.265625 -7.328125 L 4.984375 -7.328125 C 5.296875 -5.960938 5.9375 -4.890625 6.90625 -4.109375 C 7.875 -3.328125 9.050781 -2.9375 10.4375 -2.9375 C 12.414062 -2.9375 14.066406 -3.617188 15.390625 -4.984375 L 17.40625 -2.84375 C 15.601562 -0.863281 13.179688 0.125 10.140625 0.125 C 7.429688 0.125 5.253906 -0.691406 3.609375 -2.328125 C 1.972656 -3.972656 1.15625 -6.113281 1.15625 -8.75 C 1.15625 -11.394531 1.976562 -13.539062 3.625 -15.1875 C 5.28125 -16.84375 7.421875 -17.679688 10.046875 -17.703125 Z M 4.921875 -10.109375 L 14.96875 -10.109375 C 14.894531 -11.515625 14.414062 -12.625 13.53125 -13.4375 C 12.65625 -14.257812 11.503906 -14.671875 10.078125 -14.671875 C 8.691406 -14.671875 7.539062 -14.257812 6.625 -13.4375 C 5.707031 -12.625 5.140625 -11.515625 4.921875 -10.109375 Z M 4.921875 -10.109375 "/></g></g></g><g fill="#136d43" fill-opacity="1"><g transform="translate(435.020488, 439.721992)"><g><path d="M 8.0625 -17.734375 C 10.476562 -17.734375 12.523438 -17.140625 14.203125 -15.953125 L 12.8125 -13.140625 C 11.144531 -14.179688 9.460938 -14.703125 7.765625 -14.703125 C 6.046875 -14.703125 5.1875 -14.117188 5.1875 -12.953125 C 5.1875 -12.378906 5.503906 -11.90625 6.140625 -11.53125 C 6.785156 -11.15625 7.5625 -10.835938 8.46875 -10.578125 C 9.382812 -10.328125 10.296875 -10.03125 11.203125 -9.6875 C 12.117188 -9.351562 12.894531 -8.800781 13.53125 -8.03125 C 14.175781 -7.257812 14.5 -6.28125 14.5 -5.09375 C 14.5 -3.394531 13.851562 -2.097656 12.5625 -1.203125 C 11.28125 -0.316406 9.679688 0.125 7.765625 0.125 C 6.441406 0.125 5.144531 -0.0859375 3.875 -0.515625 C 2.613281 -0.941406 1.550781 -1.539062 0.6875 -2.3125 L 2.046875 -5.015625 C 2.796875 -4.359375 3.710938 -3.832031 4.796875 -3.4375 C 5.890625 -3.039062 6.929688 -2.84375 7.921875 -2.84375 C 8.785156 -2.84375 9.476562 -2.992188 10 -3.296875 C 10.53125 -3.609375 10.796875 -4.082031 10.796875 -4.71875 C 10.796875 -5.382812 10.476562 -5.914062 9.84375 -6.3125 C 9.207031 -6.707031 8.4375 -7.023438 7.53125 -7.265625 C 6.625 -7.503906 5.71875 -7.789062 4.8125 -8.125 C 3.914062 -8.457031 3.148438 -9.003906 2.515625 -9.765625 C 1.890625 -10.523438 1.578125 -11.488281 1.578125 -12.65625 C 1.578125 -14.320312 2.195312 -15.582031 3.4375 -16.4375 C 4.6875 -17.300781 6.226562 -17.734375 8.0625 -17.734375 Z M 8.0625 -17.734375 "/></g></g></g><g fill="#136d43" fill-opacity="1"><g transform="translate(450.646591, 439.721992)"><g><path d="M 2.109375 -3.453125 C 2.503906 -3.859375 3 -4.0625 3.59375 -4.0625 C 4.195312 -4.0625 4.695312 -3.859375 5.09375 -3.453125 C 5.488281 -3.046875 5.6875 -2.535156 5.6875 -1.921875 C 5.6875 -1.273438 5.488281 -0.742188 5.09375 -0.328125 C 4.695312 0.0859375 4.195312 0.296875 3.59375 0.296875 C 3 0.296875 2.503906 0.0859375 2.109375 -0.328125 C 1.710938 -0.742188 1.515625 -1.273438 1.515625 -1.921875 C 1.515625 -2.535156 1.710938 -3.046875 2.109375 -3.453125 Z M 2.109375 -3.453125 "/></g></g></g><g fill="#198653" fill-opacity="1"><g transform="translate(0.0000108667, 281.716604)"><g><path d="M 54.859375 -52.15625 L 23.09375 -52.15625 L 23.09375 -37.0625 L 52.34375 -37.0625 L 52.34375 -24.03125 L 23.09375 -24.03125 L 23.09375 0 L 6.515625 0 L 6.515625 -65.203125 L 54.859375 -65.203125 Z M 54.859375 -52.15625 "/></g></g></g><g fill="#198653" fill-opacity="1"><g transform="translate(56.250325, 281.716604)"><g><path d="M 37.4375 -65.75 C 47.5625 -65.75 55.976562 -62.597656 62.6875 -56.296875 C 69.394531 -49.992188 72.75 -42.125 72.75 -32.6875 C 72.75 -23.1875 69.378906 -15.238281 62.640625 -8.84375 C 55.898438 -2.445312 47.5 0.75 37.4375 0.75 C 27.382812 0.75 19.003906 -2.429688 12.296875 -8.796875 C 5.585938 -15.160156 2.234375 -23.125 2.234375 -32.6875 C 2.234375 -42.1875 5.585938 -50.070312 12.296875 -56.34375 C 19.003906 -62.613281 27.382812 -65.75 37.4375 -65.75 Z M 37.625 -51.875 C 32.53125 -51.875 28.179688 -50.023438 24.578125 -46.328125 C 20.984375 -42.640625 19.1875 -38.0625 19.1875 -32.59375 C 19.1875 -27.132812 21 -22.523438 24.625 -18.765625 C 28.257812 -15.015625 32.59375 -13.140625 37.625 -13.140625 C 42.65625 -13.140625 46.925781 -15.015625 50.4375 -18.765625 C 53.945312 -22.523438 55.703125 -27.132812 55.703125 -32.59375 C 55.703125 -38.0625 53.945312 -42.640625 50.4375 -46.328125 C 46.925781 -50.023438 42.65625 -51.875 37.625 -51.875 Z M 37.625 -51.875 "/></g></g></g><g fill="#198653" fill-opacity="1"><g transform="translate(131.219694, 281.716604)"><g><path d="M 37.4375 -65.75 C 47.5625 -65.75 55.976562 -62.597656 62.6875 -56.296875 C 69.394531 -49.992188 72.75 -42.125 72.75 -32.6875 C 72.75 -23.1875 69.378906 -15.238281 62.640625 -8.84375 C 55.898438 -2.445312 47.5 0.75 37.4375 0.75 C 27.382812 0.75 19.003906 -2.429688 12.296875 -8.796875 C 5.585938 -15.160156 2.234375 -23.125 2.234375 -32.6875 C 2.234375 -42.1875 5.585938 -50.070312 12.296875 -56.34375 C 19.003906 -62.613281 27.382812 -65.75 37.4375 -65.75 Z M 37.625 -51.875 C 32.53125 -51.875 28.179688 -50.023438 24.578125 -46.328125 C 20.984375 -42.640625 19.1875 -38.0625 19.1875 -32.59375 C 19.1875 -27.132812 21 -22.523438 24.625 -18.765625 C 28.257812 -15.015625 32.59375 -13.140625 37.625 -13.140625 C 42.65625 -13.140625 46.925781 -15.015625 50.4375 -18.765625 C 53.945312 -22.523438 55.703125 -27.132812 55.703125 -32.59375 C 55.703125 -38.0625 53.945312 -42.640625 50.4375 -46.328125 C 46.925781 -50.023438 42.65625 -51.875 37.625 -51.875 Z M 37.625 -51.875 "/></g></g></g><g fill="#198653" fill-opacity="1"><g transform="translate(206.189063, 281.716604)"><g><path d="M 6.515625 -65.203125 L 34.5625 -65.203125 C 44.800781 -65.203125 53.132812 -62.1875 59.5625 -56.15625 C 65.988281 -50.132812 69.203125 -42.28125 69.203125 -32.59375 C 69.203125 -22.96875 65.941406 -15.128906 59.421875 -9.078125 C 52.898438 -3.023438 44.394531 0 33.90625 0 L 6.515625 0 Z M 23.09375 -51.96875 L 23.09375 -13.21875 L 34.921875 -13.21875 C 40.015625 -13.21875 44.191406 -15.003906 47.453125 -18.578125 C 50.710938 -22.148438 52.34375 -26.789062 52.34375 -32.5 C 52.34375 -38.21875 50.632812 -42.890625 47.21875 -46.515625 C 43.800781 -50.148438 39.457031 -51.96875 34.1875 -51.96875 Z M 23.09375 -51.96875 "/></g></g></g><g fill="#198653" fill-opacity="1"><g transform="translate(277.619506, 281.716604)"><g/></g></g><g fill="#198653" fill-opacity="1"><g transform="translate(299.225588, 281.716604)"><g><path d="M 66.6875 0 L 50.109375 0 L 50.109375 -25.328125 L 23.09375 -25.328125 L 23.09375 0 L 6.515625 0 L 6.515625 -65.203125 L 23.09375 -65.203125 L 23.09375 -38.375 L 50.109375 -38.375 L 50.109375 -65.203125 L 66.6875 -65.203125 Z M 66.6875 0 "/></g></g></g><g fill="#198653" fill-opacity="1"><g transform="translate(372.425504, 281.716604)"><g><path d="M 57.5625 -52.15625 L 23.09375 -52.15625 L 23.09375 -39.21875 L 54.203125 -39.21875 L 54.203125 -26.171875 L 23.09375 -26.171875 L 23.09375 -13.046875 L 58.578125 -13.046875 L 58.578125 0 L 6.515625 0 L 6.515625 -65.203125 L 57.5625 -65.203125 Z M 57.5625 -52.15625 "/></g></g></g><g fill="#198653" fill-opacity="1"><g transform="translate(435.194862, 281.716604)"><g><path d="M 45.828125 0 L 36.140625 -18.34375 L 23.09375 -18.34375 L 23.09375 0 L 6.515625 0 L 6.515625 -65.203125 L 35.671875 -65.203125 C 44.304688 -65.203125 50.984375 -63.226562 55.703125 -59.28125 C 60.421875 -55.34375 62.78125 -49.738281 62.78125 -42.46875 C 62.78125 -32.414062 58.835938 -25.429688 50.953125 -21.515625 L 64.640625 0 Z M 23.09375 -31.390625 L 35.671875 -31.390625 C 39.273438 -31.390625 42.066406 -32.289062 44.046875 -34.09375 C 46.035156 -35.894531 47.03125 -38.5 47.03125 -41.90625 C 47.03125 -45.257812 46.035156 -47.804688 44.046875 -49.546875 C 42.066406 -51.285156 39.273438 -52.15625 35.671875 -52.15625 L 23.09375 -52.15625 Z M 23.09375 -31.390625 "/></g></g></g><g fill="#198653" fill-opacity="1"><g transform="translate(502.620742, 281.716604)"><g><path d="M 37.4375 -65.75 C 47.5625 -65.75 55.976562 -62.597656 62.6875 -56.296875 C 69.394531 -49.992188 72.75 -42.125 72.75 -32.6875 C 72.75 -23.1875 69.378906 -15.238281 62.640625 -8.84375 C 55.898438 -2.445312 47.5 0.75 37.4375 0.75 C 27.382812 0.75 19.003906 -2.429688 12.296875 -8.796875 C 5.585938 -15.160156 2.234375 -23.125 2.234375 -32.6875 C 2.234375 -42.1875 5.585938 -50.070312 12.296875 -56.34375 C 19.003906 -62.613281 27.382812 -65.75 37.4375 -65.75 Z M 37.625 -51.875 C 32.53125 -51.875 28.179688 -50.023438 24.578125 -46.328125 C 20.984375 -42.640625 19.1875 -38.0625 19.1875 -32.59375 C 19.1875 -27.132812 21 -22.523438 24.625 -18.765625 C 28.257812 -15.015625 32.59375 -13.140625 37.625 -13.140625 C 42.65625 -13.140625 46.925781 -15.015625 50.4375 -18.765625 C 53.945312 -22.523438 55.703125 -27.132812 55.703125 -32.59375 C 55.703125 -38.0625 53.945312 -42.640625 50.4375 -46.328125 C 46.925781 -50.023438 42.65625 -51.875 37.625 -51.875 Z M 37.625 -51.875 "/></g></g></g><g fill="#198653" fill-opacity="1"><g transform="translate(577.57568, 281.716604)"><g/></g></g></svg>