<svg xmlns="http://www.w3.org/2000/svg" xmlns:xlink="http://www.w3.org/1999/xlink" width="800" zoomAndPan="magnify" viewBox="0 0 600 449.999984" height="600" preserveAspectRatio="xMidYMid meet" version="1.0"><defs><g/></defs><g fill="#198653" fill-opacity="1"><g transform="translate(4.154432, 437.882697)"><g><path d="M 5.328125 -53.21875 L 28.203125 -53.21875 C 36.566406 -53.21875 43.367188 -50.757812 48.609375 -45.84375 C 53.859375 -40.925781 56.484375 -34.515625 56.484375 -26.609375 C 56.484375 -18.753906 53.820312 -12.351562 48.5 -7.40625 C 43.175781 -2.46875 36.234375 0 27.671875 0 L 5.328125 0 Z M 18.859375 -42.421875 L 18.859375 -10.796875 L 28.5 -10.796875 C 32.65625 -10.796875 36.0625 -12.25 38.71875 -15.15625 C 41.382812 -18.070312 42.71875 -21.859375 42.71875 -26.515625 C 42.71875 -31.179688 41.320312 -35 38.53125 -37.96875 C 35.75 -40.9375 32.203125 -42.421875 27.890625 -42.421875 Z M 18.859375 -42.421875 "/></g></g></g><g fill="#198653" fill-opacity="1"><g transform="translate(62.460727, 437.882697)"><g><path d="M 40.671875 -9.8125 L 17.40625 -9.8125 L 13.53125 0 L -0.375 0 L 22.578125 -53.21875 L 36.484375 -53.21875 L 58.90625 0 L 44.46875 0 Z M 36.71875 -20.0625 L 29.109375 -39.75 L 21.359375 -20.0625 Z M 36.71875 -20.0625 "/></g></g></g><g fill="#198653" fill-opacity="1"><g transform="translate(120.995081, 437.882697)"><g><path d="M 25.765625 -53.8125 C 33.722656 -53.8125 40.71875 -51.835938 46.75 -47.890625 L 41.65625 -37.328125 C 38.863281 -38.941406 35.867188 -40.269531 32.671875 -41.3125 C 29.484375 -42.351562 26.800781 -42.875 24.625 -42.875 C 20.726562 -42.875 18.78125 -41.582031 18.78125 -39 C 18.78125 -37.320312 19.738281 -35.976562 21.65625 -34.96875 C 23.582031 -33.957031 25.925781 -33.082031 28.6875 -32.34375 C 31.457031 -31.613281 34.222656 -30.726562 36.984375 -29.6875 C 39.742188 -28.644531 42.085938 -26.957031 44.015625 -24.625 C 45.941406 -22.289062 46.90625 -19.351562 46.90625 -15.8125 C 46.90625 -10.695312 44.898438 -6.707031 40.890625 -3.84375 C 36.890625 -0.976562 31.800781 0.453125 25.625 0.453125 C 21.207031 0.453125 16.84375 -0.304688 12.53125 -1.828125 C 8.226562 -3.347656 4.484375 -5.425781 1.296875 -8.0625 L 6.53125 -18.46875 C 9.21875 -16.132812 12.382812 -14.21875 16.03125 -12.71875 C 19.6875 -11.226562 22.929688 -10.484375 25.765625 -10.484375 C 27.941406 -10.484375 29.640625 -10.875 30.859375 -11.65625 C 32.078125 -12.445312 32.6875 -13.601562 32.6875 -15.125 C 32.6875 -16.59375 31.988281 -17.820312 30.59375 -18.8125 C 29.195312 -19.800781 27.457031 -20.535156 25.375 -21.015625 C 23.300781 -21.492188 21.046875 -22.140625 18.609375 -22.953125 C 16.179688 -23.765625 13.925781 -24.648438 11.84375 -25.609375 C 9.769531 -26.578125 8.035156 -28.113281 6.640625 -30.21875 C 5.253906 -32.320312 4.5625 -34.84375 4.5625 -37.78125 C 4.5625 -42.644531 6.5 -46.53125 10.375 -49.4375 C 14.25 -52.351562 19.378906 -53.8125 25.765625 -53.8125 Z M 25.765625 -53.8125 "/></g></g></g><g fill="#198653" fill-opacity="1"><g transform="translate(169.951089, 437.882697)"><g><path d="M 54.421875 0 L 40.890625 0 L 40.890625 -20.671875 L 18.859375 -20.671875 L 18.859375 0 L 5.328125 0 L 5.328125 -53.21875 L 18.859375 -53.21875 L 18.859375 -31.3125 L 40.890625 -31.3125 L 40.890625 -53.21875 L 54.421875 -53.21875 Z M 54.421875 0 "/></g></g></g><g fill="#198653" fill-opacity="1"><g transform="translate(229.701745, 437.882697)"><g><path d="M 5.328125 -53.21875 L 30.484375 -53.21875 C 36.460938 -53.21875 41.210938 -52.007812 44.734375 -49.59375 C 48.253906 -47.1875 50.015625 -43.957031 50.015625 -39.90625 C 50.015625 -37.125 49.203125 -34.679688 47.578125 -32.578125 C 45.960938 -30.472656 43.734375 -29.015625 40.890625 -28.203125 C 44.234375 -27.546875 46.894531 -26 48.875 -23.5625 C 50.851562 -21.132812 51.84375 -18.195312 51.84375 -14.75 C 51.84375 -10.238281 50.003906 -6.648438 46.328125 -3.984375 C 42.660156 -1.328125 37.679688 0 31.390625 0 L 5.328125 0 Z M 18.78125 -42.875 L 18.78125 -31.921875 L 29.71875 -31.921875 C 31.695312 -31.921875 33.269531 -32.414062 34.4375 -33.40625 C 35.601562 -34.394531 36.1875 -35.75 36.1875 -37.46875 C 36.1875 -39.144531 35.601562 -40.460938 34.4375 -41.421875 C 33.269531 -42.390625 31.695312 -42.875 29.71875 -42.875 Z M 18.78125 -22.203125 L 18.78125 -10.421875 L 29.71875 -10.421875 C 32.25 -10.421875 34.238281 -10.953125 35.6875 -12.015625 C 37.132812 -13.078125 37.859375 -14.546875 37.859375 -16.421875 C 37.859375 -18.191406 37.132812 -19.597656 35.6875 -20.640625 C 34.238281 -21.679688 32.25 -22.203125 29.71875 -22.203125 Z M 18.78125 -22.203125 "/></g></g></g><g fill="#198653" fill-opacity="1"><g transform="translate(284.055069, 437.882697)"><g><path d="M 30.5625 -53.671875 C 38.820312 -53.671875 45.6875 -51.097656 51.15625 -45.953125 C 56.632812 -40.804688 59.375 -34.382812 59.375 -26.6875 C 59.375 -18.925781 56.625 -12.4375 51.125 -7.21875 C 45.625 -2 38.769531 0.609375 30.5625 0.609375 C 22.351562 0.609375 15.507812 -1.984375 10.03125 -7.171875 C 4.5625 -12.367188 1.828125 -18.875 1.828125 -26.6875 C 1.828125 -34.4375 4.5625 -40.867188 10.03125 -45.984375 C 15.507812 -51.109375 22.351562 -53.671875 30.5625 -53.671875 Z M 30.703125 -42.34375 C 26.554688 -42.34375 23.007812 -40.832031 20.0625 -37.8125 C 17.125 -34.800781 15.65625 -31.066406 15.65625 -26.609375 C 15.65625 -22.148438 17.132812 -18.382812 20.09375 -15.3125 C 23.0625 -12.25 26.597656 -10.71875 30.703125 -10.71875 C 34.816406 -10.71875 38.300781 -12.25 41.15625 -15.3125 C 44.019531 -18.382812 45.453125 -22.148438 45.453125 -26.609375 C 45.453125 -31.066406 44.019531 -34.800781 41.15625 -37.8125 C 38.300781 -40.832031 34.816406 -42.34375 30.703125 -42.34375 Z M 30.703125 -42.34375 "/></g></g></g><g fill="#198653" fill-opacity="1"><g transform="translate(345.250071, 437.882697)"><g><path d="M 40.671875 -9.8125 L 17.40625 -9.8125 L 13.53125 0 L -0.375 0 L 22.578125 -53.21875 L 36.484375 -53.21875 L 58.90625 0 L 44.46875 0 Z M 36.71875 -20.0625 L 29.109375 -39.75 L 21.359375 -20.0625 Z M 36.71875 -20.0625 "/></g></g></g><g fill="#198653" fill-opacity="1"><g transform="translate(403.784425, 437.882697)"><g><path d="M 37.40625 0 L 29.5 -14.96875 L 18.859375 -14.96875 L 18.859375 0 L 5.328125 0 L 5.328125 -53.21875 L 29.109375 -53.21875 C 36.160156 -53.21875 41.609375 -51.609375 45.453125 -48.390625 C 49.304688 -45.171875 51.234375 -40.59375 51.234375 -34.65625 C 51.234375 -26.445312 48.015625 -20.75 41.578125 -17.5625 L 52.75 0 Z M 18.859375 -25.625 L 29.109375 -25.625 C 32.046875 -25.625 34.328125 -26.359375 35.953125 -27.828125 C 37.578125 -29.296875 38.390625 -31.421875 38.390625 -34.203125 C 38.390625 -36.941406 37.578125 -39.019531 35.953125 -40.4375 C 34.328125 -41.851562 32.046875 -42.5625 29.109375 -42.5625 L 18.859375 -42.5625 Z M 18.859375 -25.625 "/></g></g></g><g fill="#198653" fill-opacity="1"><g transform="translate(458.821928, 437.882697)"><g><path d="M 5.328125 -53.21875 L 28.203125 -53.21875 C 36.566406 -53.21875 43.367188 -50.757812 48.609375 -45.84375 C 53.859375 -40.925781 56.484375 -34.515625 56.484375 -26.609375 C 56.484375 -18.753906 53.820312 -12.351562 48.5 -7.40625 C 43.175781 -2.46875 36.234375 0 27.671875 0 L 5.328125 0 Z M 18.859375 -42.421875 L 18.859375 -10.796875 L 28.5 -10.796875 C 32.65625 -10.796875 36.0625 -12.25 38.71875 -15.15625 C 41.382812 -18.070312 42.71875 -21.859375 42.71875 -26.515625 C 42.71875 -31.179688 41.320312 -35 38.53125 -37.96875 C 35.75 -40.9375 32.203125 -42.421875 27.890625 -42.421875 Z M 18.859375 -42.421875 "/></g></g></g><g fill="#198653" fill-opacity="1"><g transform="translate(517.113237, 437.882697)"><g/></g></g></svg>