<svg xmlns="http://www.w3.org/2000/svg" xmlns:xlink="http://www.w3.org/1999/xlink" width="800" zoomAndPan="magnify" viewBox="0 0 600 449.999984" height="600" preserveAspectRatio="xMidYMid meet" version="1.0"><defs><g/></defs><g fill="#136d43" fill-opacity="1"><g transform="translate(0.0000108667, 358.826497)"><g><path d="M 8.1875 0 L 2.3125 0 L 2.3125 -23.125 L 8.1875 -23.125 Z M 8.1875 0 "/></g></g></g><g fill="#136d43" fill-opacity="1"><g transform="translate(10.60462, 358.826497)"><g><path d="M 26.0625 -18.0625 C 28.019531 -18.0625 29.578125 -17.4375 30.734375 -16.1875 C 31.890625 -14.945312 32.46875 -13.296875 32.46875 -11.234375 L 32.46875 0 L 26.78125 0 L 26.78125 -9.640625 C 26.78125 -10.703125 26.503906 -11.535156 25.953125 -12.140625 C 25.410156 -12.742188 24.664062 -13.046875 23.71875 -13.046875 C 22.65625 -13.023438 21.8125 -12.625 21.1875 -11.84375 C 20.5625 -11.0625 20.25 -10.050781 20.25 -8.8125 L 20.25 0 L 14.53125 0 L 14.53125 -9.640625 C 14.53125 -10.703125 14.257812 -11.535156 13.71875 -12.140625 C 13.1875 -12.742188 12.445312 -13.046875 11.5 -13.046875 C 10.414062 -13.023438 9.550781 -12.617188 8.90625 -11.828125 C 8.269531 -11.035156 7.953125 -10.03125 7.953125 -8.8125 L 7.953125 0 L 2.28125 0 L 2.28125 -17.796875 L 7.953125 -17.796875 L 7.953125 -14.859375 C 9.171875 -16.953125 11.132812 -18.019531 13.84375 -18.0625 C 15.269531 -18.0625 16.503906 -17.703125 17.546875 -16.984375 C 18.597656 -16.273438 19.34375 -15.289062 19.78125 -14.03125 C 20.945312 -16.675781 23.039062 -18.019531 26.0625 -18.0625 Z M 26.0625 -18.0625 "/></g></g></g><g fill="#136d43" fill-opacity="1"><g transform="translate(44.962246, 358.826497)"><g><path d="M 13.484375 -18 C 15.992188 -18 18.007812 -17.15625 19.53125 -15.46875 C 21.0625 -13.789062 21.828125 -11.570312 21.828125 -8.8125 C 21.828125 -6.101562 21.078125 -3.921875 19.578125 -2.265625 C 18.085938 -0.617188 16.097656 0.203125 13.609375 0.203125 C 11.273438 0.203125 9.457031 -0.65625 8.15625 -2.375 L 8.15625 6.40625 L 2.4375 6.40625 L 2.4375 -17.796875 L 8.15625 -17.796875 L 8.15625 -15.453125 C 9.476562 -17.148438 11.253906 -18 13.484375 -18 Z M 12.09375 -4.328125 C 13.28125 -4.328125 14.242188 -4.757812 14.984375 -5.625 C 15.722656 -6.5 16.09375 -7.617188 16.09375 -8.984375 C 16.09375 -10.347656 15.722656 -11.457031 14.984375 -12.3125 C 14.242188 -13.175781 13.28125 -13.609375 12.09375 -13.609375 C 10.945312 -13.609375 10.003906 -13.175781 9.265625 -12.3125 C 8.523438 -11.457031 8.15625 -10.347656 8.15625 -8.984375 C 8.15625 -7.597656 8.519531 -6.472656 9.25 -5.609375 C 9.976562 -4.753906 10.925781 -4.328125 12.09375 -4.328125 Z M 12.09375 -4.328125 "/></g></g></g><g fill="#136d43" fill-opacity="1"><g transform="translate(67.69115, 358.826497)"><g><path d="M 8 -17.796875 L 8 -14.796875 C 9.25 -16.929688 11.175781 -18.019531 13.78125 -18.0625 L 13.78125 -12.921875 C 12.144531 -13.066406 10.804688 -12.789062 9.765625 -12.09375 C 8.734375 -11.40625 8.144531 -10.425781 8 -9.15625 L 8 0 L 2.28125 0 L 2.28125 -17.796875 Z M 8 -17.796875 "/></g></g></g><g fill="#136d43" fill-opacity="1"><g transform="translate(81.896707, 358.826497)"><g><path d="M 10.53125 -18 C 13.4375 -18 15.78125 -17.164062 17.5625 -15.5 C 19.351562 -13.84375 20.25 -11.648438 20.25 -8.921875 C 20.25 -6.191406 19.351562 -3.988281 17.5625 -2.3125 C 15.78125 -0.632812 13.4375 0.203125 10.53125 0.203125 C 7.601562 0.203125 5.25 -0.632812 3.46875 -2.3125 C 1.6875 -3.988281 0.796875 -6.191406 0.796875 -8.921875 C 0.796875 -11.648438 1.6875 -13.84375 3.46875 -15.5 C 5.25 -17.164062 7.601562 -18 10.53125 -18 Z M 10.53125 -13.484375 C 9.34375 -13.484375 8.378906 -13.050781 7.640625 -12.1875 C 6.910156 -11.332031 6.546875 -10.222656 6.546875 -8.859375 C 6.546875 -7.460938 6.910156 -6.34375 7.640625 -5.5 C 8.378906 -4.65625 9.34375 -4.234375 10.53125 -4.234375 C 11.695312 -4.234375 12.648438 -4.65625 13.390625 -5.5 C 14.128906 -6.34375 14.5 -7.460938 14.5 -8.859375 C 14.5 -10.222656 14.128906 -11.332031 13.390625 -12.1875 C 12.648438 -13.050781 11.695312 -13.484375 10.53125 -13.484375 Z M 10.53125 -13.484375 "/></g></g></g><g fill="#136d43" fill-opacity="1"><g transform="translate(103.039853, 358.826497)"><g><path d="M 12.390625 0 L 6.546875 0 L -0.171875 -17.796875 L 5.71875 -17.796875 L 9.546875 -5.21875 L 13.40625 -17.796875 L 19.09375 -17.796875 Z M 12.390625 0 "/></g></g></g><g fill="#136d43" fill-opacity="1"><g transform="translate(122.002626, 358.826497)"><g><path d="M 10.078125 -18 C 13.160156 -18 15.476562 -17.050781 17.03125 -15.15625 C 18.582031 -13.269531 19.257812 -10.671875 19.0625 -7.359375 L 6.546875 -7.359375 C 6.828125 -6.304688 7.332031 -5.492188 8.0625 -4.921875 C 8.789062 -4.347656 9.679688 -4.0625 10.734375 -4.0625 C 12.359375 -4.0625 13.78125 -4.664062 15 -5.875 L 18 -2.9375 C 16.082031 -0.84375 13.492188 0.203125 10.234375 0.203125 C 7.347656 0.203125 5.050781 -0.617188 3.34375 -2.265625 C 1.644531 -3.921875 0.796875 -6.117188 0.796875 -8.859375 C 0.796875 -11.609375 1.644531 -13.816406 3.34375 -15.484375 C 5.050781 -17.160156 7.296875 -18 10.078125 -18 Z M 6.4375 -10.4375 L 13.578125 -10.4375 C 13.578125 -11.519531 13.257812 -12.390625 12.625 -13.046875 C 12 -13.703125 11.171875 -14.03125 10.140625 -14.03125 C 9.171875 -14.03125 8.351562 -13.707031 7.6875 -13.0625 C 7.03125 -12.414062 6.613281 -11.539062 6.4375 -10.4375 Z M 6.4375 -10.4375 "/></g></g></g><g fill="#136d43" fill-opacity="1"><g transform="translate(141.989507, 358.826497)"><g/></g></g><g fill="#136d43" fill-opacity="1"><g transform="translate(149.753, 358.826497)"><g><path d="M 11.03125 -20.25 C 10.4375 -20.269531 9.945312 -20.109375 9.5625 -19.765625 C 9.175781 -19.421875 8.984375 -18.929688 8.984375 -18.296875 L 8.984375 -17.015625 L 13.015625 -17.015625 L 13.015625 -13.25 L 8.984375 -13.25 L 8.984375 0 L 3.34375 0 L 3.34375 -13.25 L 0.921875 -13.25 L 0.921875 -17.015625 L 3.34375 -17.015625 L 3.34375 -18.65625 C 3.34375 -20.570312 3.976562 -22.066406 5.25 -23.140625 C 6.53125 -24.222656 8.160156 -24.765625 10.140625 -24.765625 C 12.035156 -24.765625 13.695312 -24.347656 15.125 -23.515625 L 13.109375 -19.515625 C 12.453125 -20.003906 11.757812 -20.25 11.03125 -20.25 Z M 11.03125 -20.25 "/></g></g></g><g fill="#136d43" fill-opacity="1"><g transform="translate(162.604079, 358.826497)"><g><path d="M 10.53125 -18 C 13.4375 -18 15.78125 -17.164062 17.5625 -15.5 C 19.351562 -13.84375 20.25 -11.648438 20.25 -8.921875 C 20.25 -6.191406 19.351562 -3.988281 17.5625 -2.3125 C 15.78125 -0.632812 13.4375 0.203125 10.53125 0.203125 C 7.601562 0.203125 5.25 -0.632812 3.46875 -2.3125 C 1.6875 -3.988281 0.796875 -6.191406 0.796875 -8.921875 C 0.796875 -11.648438 1.6875 -13.84375 3.46875 -15.5 C 5.25 -17.164062 7.601562 -18 10.53125 -18 Z M 10.53125 -13.484375 C 9.34375 -13.484375 8.378906 -13.050781 7.640625 -12.1875 C 6.910156 -11.332031 6.546875 -10.222656 6.546875 -8.859375 C 6.546875 -7.460938 6.910156 -6.34375 7.640625 -5.5 C 8.378906 -4.65625 9.34375 -4.234375 10.53125 -4.234375 C 11.695312 -4.234375 12.648438 -4.65625 13.390625 -5.5 C 14.128906 -6.34375 14.5 -7.460938 14.5 -8.859375 C 14.5 -10.222656 14.128906 -11.332031 13.390625 -12.1875 C 12.648438 -13.050781 11.695312 -13.484375 10.53125 -13.484375 Z M 10.53125 -13.484375 "/></g></g></g><g fill="#136d43" fill-opacity="1"><g transform="translate(183.747235, 358.826497)"><g><path d="M 10.53125 -18 C 13.4375 -18 15.78125 -17.164062 17.5625 -15.5 C 19.351562 -13.84375 20.25 -11.648438 20.25 -8.921875 C 20.25 -6.191406 19.351562 -3.988281 17.5625 -2.3125 C 15.78125 -0.632812 13.4375 0.203125 10.53125 0.203125 C 7.601562 0.203125 5.25 -0.632812 3.46875 -2.3125 C 1.6875 -3.988281 0.796875 -6.191406 0.796875 -8.921875 C 0.796875 -11.648438 1.6875 -13.84375 3.46875 -15.5 C 5.25 -17.164062 7.601562 -18 10.53125 -18 Z M 10.53125 -13.484375 C 9.34375 -13.484375 8.378906 -13.050781 7.640625 -12.1875 C 6.910156 -11.332031 6.546875 -10.222656 6.546875 -8.859375 C 6.546875 -7.460938 6.910156 -6.34375 7.640625 -5.5 C 8.378906 -4.65625 9.34375 -4.234375 10.53125 -4.234375 C 11.695312 -4.234375 12.648438 -4.65625 13.390625 -5.5 C 14.128906 -6.34375 14.5 -7.460938 14.5 -8.859375 C 14.5 -10.222656 14.128906 -11.332031 13.390625 -12.1875 C 12.648438 -13.050781 11.695312 -13.484375 10.53125 -13.484375 Z M 10.53125 -13.484375 "/></g></g></g><g fill="#136d43" fill-opacity="1"><g transform="translate(204.890391, 358.826497)"><g><path d="M 20.21875 -24.515625 L 20.21875 0 L 14.5 0 L 14.5 -2.34375 C 13.195312 -0.625 11.414062 0.234375 9.15625 0.234375 C 6.644531 0.234375 4.628906 -0.613281 3.109375 -2.3125 C 1.585938 -4.007812 0.828125 -6.234375 0.828125 -8.984375 C 0.828125 -11.710938 1.570312 -13.898438 3.0625 -15.546875 C 4.5625 -17.203125 6.546875 -18.03125 9.015625 -18.03125 C 11.367188 -18.03125 13.195312 -17.171875 14.5 -15.453125 L 14.5 -24.515625 Z M 7.65625 -5.46875 C 8.382812 -4.613281 9.34375 -4.1875 10.53125 -4.1875 C 11.726562 -4.1875 12.6875 -4.613281 13.40625 -5.46875 C 14.132812 -6.332031 14.5 -7.460938 14.5 -8.859375 C 14.5 -10.222656 14.132812 -11.332031 13.40625 -12.1875 C 12.6875 -13.050781 11.726562 -13.484375 10.53125 -13.484375 C 9.34375 -13.484375 8.382812 -13.054688 7.65625 -12.203125 C 6.9375 -11.359375 6.566406 -10.242188 6.546875 -8.859375 C 6.566406 -7.460938 6.9375 -6.332031 7.65625 -5.46875 Z M 7.65625 -5.46875 "/></g></g></g><g fill="#136d43" fill-opacity="1"><g transform="translate(227.652339, 358.826497)"><g/></g></g><g fill="#136d43" fill-opacity="1"><g transform="translate(235.415842, 358.826497)"><g><path d="M 13.484375 -18 C 15.992188 -18 18.007812 -17.15625 19.53125 -15.46875 C 21.0625 -13.789062 21.828125 -11.570312 21.828125 -8.8125 C 21.828125 -6.101562 21.078125 -3.921875 19.578125 -2.265625 C 18.085938 -0.617188 16.097656 0.203125 13.609375 0.203125 C 11.273438 0.203125 9.457031 -0.65625 8.15625 -2.375 L 8.15625 6.40625 L 2.4375 6.40625 L 2.4375 -17.796875 L 8.15625 -17.796875 L 8.15625 -15.453125 C 9.476562 -17.148438 11.253906 -18 13.484375 -18 Z M 12.09375 -4.328125 C 13.28125 -4.328125 14.242188 -4.757812 14.984375 -5.625 C 15.722656 -6.5 16.09375 -7.617188 16.09375 -8.984375 C 16.09375 -10.347656 15.722656 -11.457031 14.984375 -12.3125 C 14.242188 -13.175781 13.28125 -13.609375 12.09375 -13.609375 C 10.945312 -13.609375 10.003906 -13.175781 9.265625 -12.3125 C 8.523438 -11.457031 8.15625 -10.347656 8.15625 -8.984375 C 8.15625 -7.597656 8.519531 -6.472656 9.25 -5.609375 C 9.976562 -4.753906 10.925781 -4.328125 12.09375 -4.328125 Z M 12.09375 -4.328125 "/></g></g></g><g fill="#136d43" fill-opacity="1"><g transform="translate(258.144751, 358.826497)"><g><path d="M 8 -17.796875 L 8 -14.796875 C 9.25 -16.929688 11.175781 -18.019531 13.78125 -18.0625 L 13.78125 -12.921875 C 12.144531 -13.066406 10.804688 -12.789062 9.765625 -12.09375 C 8.734375 -11.40625 8.144531 -10.425781 8 -9.15625 L 8 0 L 2.28125 0 L 2.28125 -17.796875 Z M 8 -17.796875 "/></g></g></g><g fill="#136d43" fill-opacity="1"><g transform="translate(272.350319, 358.826497)"><g><path d="M 10.53125 -18 C 13.4375 -18 15.78125 -17.164062 17.5625 -15.5 C 19.351562 -13.84375 20.25 -11.648438 20.25 -8.921875 C 20.25 -6.191406 19.351562 -3.988281 17.5625 -2.3125 C 15.78125 -0.632812 13.4375 0.203125 10.53125 0.203125 C 7.601562 0.203125 5.25 -0.632812 3.46875 -2.3125 C 1.6875 -3.988281 0.796875 -6.191406 0.796875 -8.921875 C 0.796875 -11.648438 1.6875 -13.84375 3.46875 -15.5 C 5.25 -17.164062 7.601562 -18 10.53125 -18 Z M 10.53125 -13.484375 C 9.34375 -13.484375 8.378906 -13.050781 7.640625 -12.1875 C 6.910156 -11.332031 6.546875 -10.222656 6.546875 -8.859375 C 6.546875 -7.460938 6.910156 -6.34375 7.640625 -5.5 C 8.378906 -4.65625 9.34375 -4.234375 10.53125 -4.234375 C 11.695312 -4.234375 12.648438 -4.65625 13.390625 -5.5 C 14.128906 -6.34375 14.5 -7.460938 14.5 -8.859375 C 14.5 -10.222656 14.128906 -11.332031 13.390625 -12.1875 C 12.648438 -13.050781 11.695312 -13.484375 10.53125 -13.484375 Z M 10.53125 -13.484375 "/></g></g></g><g fill="#136d43" fill-opacity="1"><g transform="translate(293.493475, 358.826497)"><g><path d="M 12.390625 0 L 6.546875 0 L -0.171875 -17.796875 L 5.71875 -17.796875 L 9.546875 -5.21875 L 13.40625 -17.796875 L 19.09375 -17.796875 Z M 12.390625 0 "/></g></g></g><g fill="#136d43" fill-opacity="1"><g transform="translate(312.456258, 358.826497)"><g><path d="M 2.984375 -25.078125 C 3.546875 -25.640625 4.265625 -25.921875 5.140625 -25.921875 C 6.023438 -25.921875 6.75 -25.640625 7.3125 -25.078125 C 7.875 -24.523438 8.15625 -23.804688 8.15625 -22.921875 C 8.15625 -22.046875 7.875 -21.320312 7.3125 -20.75 C 6.75 -20.175781 6.023438 -19.890625 5.140625 -19.890625 C 4.265625 -19.890625 3.546875 -20.175781 2.984375 -20.75 C 2.421875 -21.320312 2.140625 -22.046875 2.140625 -22.921875 C 2.140625 -23.804688 2.421875 -24.523438 2.984375 -25.078125 Z M 7.953125 0 L 2.28125 0 L 2.28125 -17.796875 L 7.953125 -17.796875 Z M 7.953125 0 "/></g></g></g><g fill="#136d43" fill-opacity="1"><g transform="translate(322.829623, 358.826497)"><g><path d="M 8.65625 -18.0625 C 11.269531 -18.0625 13.710938 -17.390625 15.984375 -16.046875 L 14.03125 -12.359375 C 11.832031 -13.546875 9.960938 -14.140625 8.421875 -14.140625 C 7.253906 -14.140625 6.671875 -13.734375 6.671875 -12.921875 C 6.671875 -12.472656 6.988281 -12.097656 7.625 -11.796875 C 8.269531 -11.503906 9.050781 -11.238281 9.96875 -11 C 10.894531 -10.757812 11.816406 -10.457031 12.734375 -10.09375 C 13.648438 -9.726562 14.425781 -9.148438 15.0625 -8.359375 C 15.695312 -7.566406 16.015625 -6.597656 16.015625 -5.453125 C 16.015625 -3.671875 15.320312 -2.273438 13.9375 -1.265625 C 12.550781 -0.265625 10.742188 0.234375 8.515625 0.234375 C 5.367188 0.234375 2.707031 -0.601562 0.53125 -2.28125 L 2.34375 -5.90625 C 4.4375 -4.4375 6.539062 -3.703125 8.65625 -3.703125 C 9.957031 -3.703125 10.609375 -4.109375 10.609375 -4.921875 C 10.609375 -5.378906 10.289062 -5.765625 9.65625 -6.078125 C 9.03125 -6.390625 8.265625 -6.664062 7.359375 -6.90625 C 6.460938 -7.144531 5.5625 -7.445312 4.65625 -7.8125 C 3.75 -8.175781 2.984375 -8.742188 2.359375 -9.515625 C 1.734375 -10.285156 1.421875 -11.253906 1.421875 -12.421875 C 1.421875 -14.203125 2.09375 -15.585938 3.4375 -16.578125 C 4.78125 -17.566406 6.519531 -18.0625 8.65625 -18.0625 Z M 8.65625 -18.0625 "/></g></g></g><g fill="#136d43" fill-opacity="1"><g transform="translate(339.876304, 358.826497)"><g><path d="M 2.984375 -25.078125 C 3.546875 -25.640625 4.265625 -25.921875 5.140625 -25.921875 C 6.023438 -25.921875 6.75 -25.640625 7.3125 -25.078125 C 7.875 -24.523438 8.15625 -23.804688 8.15625 -22.921875 C 8.15625 -22.046875 7.875 -21.320312 7.3125 -20.75 C 6.75 -20.175781 6.023438 -19.890625 5.140625 -19.890625 C 4.265625 -19.890625 3.546875 -20.175781 2.984375 -20.75 C 2.421875 -21.320312 2.140625 -22.046875 2.140625 -22.921875 C 2.140625 -23.804688 2.421875 -24.523438 2.984375 -25.078125 Z M 7.953125 0 L 2.28125 0 L 2.28125 -17.796875 L 7.953125 -17.796875 Z M 7.953125 0 "/></g></g></g><g fill="#136d43" fill-opacity="1"><g transform="translate(350.249669, 358.826497)"><g><path d="M 10.53125 -18 C 13.4375 -18 15.78125 -17.164062 17.5625 -15.5 C 19.351562 -13.84375 20.25 -11.648438 20.25 -8.921875 C 20.25 -6.191406 19.351562 -3.988281 17.5625 -2.3125 C 15.78125 -0.632812 13.4375 0.203125 10.53125 0.203125 C 7.601562 0.203125 5.25 -0.632812 3.46875 -2.3125 C 1.6875 -3.988281 0.796875 -6.191406 0.796875 -8.921875 C 0.796875 -11.648438 1.6875 -13.84375 3.46875 -15.5 C 5.25 -17.164062 7.601562 -18 10.53125 -18 Z M 10.53125 -13.484375 C 9.34375 -13.484375 8.378906 -13.050781 7.640625 -12.1875 C 6.910156 -11.332031 6.546875 -10.222656 6.546875 -8.859375 C 6.546875 -7.460938 6.910156 -6.34375 7.640625 -5.5 C 8.378906 -4.65625 9.34375 -4.234375 10.53125 -4.234375 C 11.695312 -4.234375 12.648438 -4.65625 13.390625 -5.5 C 14.128906 -6.34375 14.5 -7.460938 14.5 -8.859375 C 14.5 -10.222656 14.128906 -11.332031 13.390625 -12.1875 C 12.648438 -13.050781 11.695312 -13.484375 10.53125 -13.484375 Z M 10.53125 -13.484375 "/></g></g></g><g fill="#136d43" fill-opacity="1"><g transform="translate(371.392825, 358.826497)"><g><path d="M 13.9375 -18.0625 C 15.894531 -18.0625 17.46875 -17.4375 18.65625 -16.1875 C 19.851562 -14.945312 20.453125 -13.296875 20.453125 -11.234375 L 20.453125 0 L 14.765625 0 L 14.765625 -9.640625 C 14.765625 -10.679688 14.484375 -11.503906 13.921875 -12.109375 C 13.359375 -12.710938 12.59375 -13.015625 11.625 -13.015625 C 10.613281 -13.015625 9.78125 -12.679688 9.125 -12.015625 C 8.476562 -11.359375 8.101562 -10.488281 8 -9.40625 L 8 0 L 2.28125 0 L 2.28125 -17.796875 L 8 -17.796875 L 8 -14.890625 C 9.25 -16.960938 11.226562 -18.019531 13.9375 -18.0625 Z M 13.9375 -18.0625 "/></g></g></g><g fill="#136d43" fill-opacity="1"><g transform="translate(393.725264, 358.826497)"><g><path d="M 2.015625 -4.484375 C 2.523438 -4.992188 3.1875 -5.25 4 -5.25 C 4.8125 -5.25 5.472656 -4.992188 5.984375 -4.484375 C 6.503906 -3.984375 6.765625 -3.320312 6.765625 -2.5 C 6.765625 -1.6875 6.503906 -1.019531 5.984375 -0.5 C 5.472656 0.0078125 4.8125 0.265625 4 0.265625 C 3.1875 0.265625 2.523438 0.0078125 2.015625 -0.5 C 1.503906 -1.019531 1.25 -1.6875 1.25 -2.5 C 1.25 -3.320312 1.503906 -3.984375 2.015625 -4.484375 Z M 2.015625 -4.484375 "/></g></g></g><g fill="#136d43" fill-opacity="1"><g transform="translate(401.833869, 358.826497)"><g/></g></g><g fill="#136d43" fill-opacity="1"><g transform="translate(0.0000108667, 398.745334)"><g><path d="M 8.1875 0 L 2.3125 0 L 2.3125 -23.125 L 8.1875 -23.125 Z M 8.1875 0 "/></g></g></g><g fill="#136d43" fill-opacity="1"><g transform="translate(10.60462, 398.745334)"><g><path d="M 13.9375 -18.0625 C 15.894531 -18.0625 17.46875 -17.4375 18.65625 -16.1875 C 19.851562 -14.945312 20.453125 -13.296875 20.453125 -11.234375 L 20.453125 0 L 14.765625 0 L 14.765625 -9.640625 C 14.765625 -10.679688 14.484375 -11.503906 13.921875 -12.109375 C 13.359375 -12.710938 12.59375 -13.015625 11.625 -13.015625 C 10.613281 -13.015625 9.78125 -12.679688 9.125 -12.015625 C 8.476562 -11.359375 8.101562 -10.488281 8 -9.40625 L 8 0 L 2.28125 0 L 2.28125 -17.796875 L 8 -17.796875 L 8 -14.890625 C 9.25 -16.960938 11.226562 -18.019531 13.9375 -18.0625 Z M 13.9375 -18.0625 "/></g></g></g><g fill="#136d43" fill-opacity="1"><g transform="translate(32.937072, 398.745334)"><g><path d="M 10.046875 -18 C 11.804688 -18 13.375 -17.648438 14.75 -16.953125 C 16.125 -16.265625 17.195312 -15.28125 17.96875 -14 L 13.875 -11.53125 C 12.988281 -12.757812 11.785156 -13.375 10.265625 -13.375 C 9.171875 -13.375 8.273438 -12.960938 7.578125 -12.140625 C 6.890625 -11.316406 6.546875 -10.234375 6.546875 -8.890625 C 6.546875 -7.523438 6.882812 -6.425781 7.5625 -5.59375 C 8.25 -4.769531 9.148438 -4.359375 10.265625 -4.359375 C 11.941406 -4.359375 13.15625 -5.03125 13.90625 -6.375 L 18.0625 -3.9375 C 17.34375 -2.613281 16.28125 -1.59375 14.875 -0.875 C 13.476562 -0.15625 11.84375 0.203125 9.96875 0.203125 C 7.21875 0.203125 5 -0.628906 3.3125 -2.296875 C 1.632812 -3.960938 0.796875 -6.148438 0.796875 -8.859375 C 0.796875 -11.585938 1.644531 -13.789062 3.34375 -15.46875 C 5.050781 -17.15625 7.285156 -18 10.046875 -18 Z M 10.046875 -18 "/></g></g></g><g fill="#136d43" fill-opacity="1"><g transform="translate(51.602513, 398.745334)"><g><path d="M 8 -17.796875 L 8 -14.796875 C 9.25 -16.929688 11.175781 -18.019531 13.78125 -18.0625 L 13.78125 -12.921875 C 12.144531 -13.066406 10.804688 -12.789062 9.765625 -12.09375 C 8.734375 -11.40625 8.144531 -10.425781 8 -9.15625 L 8 0 L 2.28125 0 L 2.28125 -17.796875 Z M 8 -17.796875 "/></g></g></g><g fill="#136d43" fill-opacity="1"><g transform="translate(65.808071, 398.745334)"><g><path d="M 10.078125 -18 C 13.160156 -18 15.476562 -17.050781 17.03125 -15.15625 C 18.582031 -13.269531 19.257812 -10.671875 19.0625 -7.359375 L 6.546875 -7.359375 C 6.828125 -6.304688 7.332031 -5.492188 8.0625 -4.921875 C 8.789062 -4.347656 9.679688 -4.0625 10.734375 -4.0625 C 12.359375 -4.0625 13.78125 -4.664062 15 -5.875 L 18 -2.9375 C 16.082031 -0.84375 13.492188 0.203125 10.234375 0.203125 C 7.347656 0.203125 5.050781 -0.617188 3.34375 -2.265625 C 1.644531 -3.921875 0.796875 -6.117188 0.796875 -8.859375 C 0.796875 -11.609375 1.644531 -13.816406 3.34375 -15.484375 C 5.050781 -17.160156 7.296875 -18 10.078125 -18 Z M 6.4375 -10.4375 L 13.578125 -10.4375 C 13.578125 -11.519531 13.257812 -12.390625 12.625 -13.046875 C 12 -13.703125 11.171875 -14.03125 10.140625 -14.03125 C 9.171875 -14.03125 8.351562 -13.707031 7.6875 -13.0625 C 7.03125 -12.414062 6.613281 -11.539062 6.4375 -10.4375 Z M 6.4375 -10.4375 "/></g></g></g><g fill="#136d43" fill-opacity="1"><g transform="translate(85.794952, 398.745334)"><g><path d="M 10.265625 -18.0625 C 12.710938 -18.0625 14.613281 -17.492188 15.96875 -16.359375 C 17.320312 -15.234375 18.007812 -13.65625 18.03125 -11.625 L 18.03125 0 L 12.453125 0 L 12.453125 -2.046875 C 11.285156 -0.503906 9.46875 0.265625 7 0.265625 C 5.125 0.265625 3.632812 -0.25 2.53125 -1.28125 C 1.4375 -2.320312 0.890625 -3.664062 0.890625 -5.3125 C 0.890625 -7.007812 1.476562 -8.328125 2.65625 -9.265625 C 3.832031 -10.203125 5.523438 -10.679688 7.734375 -10.703125 L 12.421875 -10.703125 L 12.421875 -10.96875 C 12.421875 -11.84375 12.128906 -12.53125 11.546875 -13.03125 C 10.960938 -13.53125 10.097656 -13.78125 8.953125 -13.78125 C 7.347656 -13.78125 5.578125 -13.28125 3.640625 -12.28125 L 2.015625 -16.046875 C 4.898438 -17.390625 7.648438 -18.0625 10.265625 -18.0625 Z M 8.75 -3.59375 C 9.65625 -3.59375 10.445312 -3.816406 11.125 -4.265625 C 11.8125 -4.722656 12.242188 -5.316406 12.421875 -6.046875 L 12.421875 -7.625 L 8.8125 -7.625 C 7.101562 -7.625 6.25 -6.988281 6.25 -5.71875 C 6.25 -5.050781 6.46875 -4.53125 6.90625 -4.15625 C 7.34375 -3.78125 7.957031 -3.59375 8.75 -3.59375 Z M 8.75 -3.59375 "/></g></g></g><g fill="#136d43" fill-opacity="1"><g transform="translate(105.715781, 398.745334)"><g><path d="M 8.65625 -18.0625 C 11.269531 -18.0625 13.710938 -17.390625 15.984375 -16.046875 L 14.03125 -12.359375 C 11.832031 -13.546875 9.960938 -14.140625 8.421875 -14.140625 C 7.253906 -14.140625 6.671875 -13.734375 6.671875 -12.921875 C 6.671875 -12.472656 6.988281 -12.097656 7.625 -11.796875 C 8.269531 -11.503906 9.050781 -11.238281 9.96875 -11 C 10.894531 -10.757812 11.816406 -10.457031 12.734375 -10.09375 C 13.648438 -9.726562 14.425781 -9.148438 15.0625 -8.359375 C 15.695312 -7.566406 16.015625 -6.597656 16.015625 -5.453125 C 16.015625 -3.671875 15.320312 -2.273438 13.9375 -1.265625 C 12.550781 -0.265625 10.742188 0.234375 8.515625 0.234375 C 5.367188 0.234375 2.707031 -0.601562 0.53125 -2.28125 L 2.34375 -5.90625 C 4.4375 -4.4375 6.539062 -3.703125 8.65625 -3.703125 C 9.957031 -3.703125 10.609375 -4.109375 10.609375 -4.921875 C 10.609375 -5.378906 10.289062 -5.765625 9.65625 -6.078125 C 9.03125 -6.390625 8.265625 -6.664062 7.359375 -6.90625 C 6.460938 -7.144531 5.5625 -7.445312 4.65625 -7.8125 C 3.75 -8.175781 2.984375 -8.742188 2.359375 -9.515625 C 1.734375 -10.285156 1.421875 -11.253906 1.421875 -12.421875 C 1.421875 -14.203125 2.09375 -15.585938 3.4375 -16.578125 C 4.78125 -17.566406 6.519531 -18.0625 8.65625 -18.0625 Z M 8.65625 -18.0625 "/></g></g></g><g fill="#136d43" fill-opacity="1"><g transform="translate(122.762452, 398.745334)"><g><path d="M 10.078125 -18 C 13.160156 -18 15.476562 -17.050781 17.03125 -15.15625 C 18.582031 -13.269531 19.257812 -10.671875 19.0625 -7.359375 L 6.546875 -7.359375 C 6.828125 -6.304688 7.332031 -5.492188 8.0625 -4.921875 C 8.789062 -4.347656 9.679688 -4.0625 10.734375 -4.0625 C 12.359375 -4.0625 13.78125 -4.664062 15 -5.875 L 18 -2.9375 C 16.082031 -0.84375 13.492188 0.203125 10.234375 0.203125 C 7.347656 0.203125 5.050781 -0.617188 3.34375 -2.265625 C 1.644531 -3.921875 0.796875 -6.117188 0.796875 -8.859375 C 0.796875 -11.609375 1.644531 -13.816406 3.34375 -15.484375 C 5.050781 -17.160156 7.296875 -18 10.078125 -18 Z M 6.4375 -10.4375 L 13.578125 -10.4375 C 13.578125 -11.519531 13.257812 -12.390625 12.625 -13.046875 C 12 -13.703125 11.171875 -14.03125 10.140625 -14.03125 C 9.171875 -14.03125 8.351562 -13.707031 7.6875 -13.0625 C 7.03125 -12.414062 6.613281 -11.539062 6.4375 -10.4375 Z M 6.4375 -10.4375 "/></g></g></g><g fill="#136d43" fill-opacity="1"><g transform="translate(142.749333, 398.745334)"><g><path d="M 20.21875 -24.515625 L 20.21875 0 L 14.5 0 L 14.5 -2.34375 C 13.195312 -0.625 11.414062 0.234375 9.15625 0.234375 C 6.644531 0.234375 4.628906 -0.613281 3.109375 -2.3125 C 1.585938 -4.007812 0.828125 -6.234375 0.828125 -8.984375 C 0.828125 -11.710938 1.570312 -13.898438 3.0625 -15.546875 C 4.5625 -17.203125 6.546875 -18.03125 9.015625 -18.03125 C 11.367188 -18.03125 13.195312 -17.171875 14.5 -15.453125 L 14.5 -24.515625 Z M 7.65625 -5.46875 C 8.382812 -4.613281 9.34375 -4.1875 10.53125 -4.1875 C 11.726562 -4.1875 12.6875 -4.613281 13.40625 -5.46875 C 14.132812 -6.332031 14.5 -7.460938 14.5 -8.859375 C 14.5 -10.222656 14.132812 -11.332031 13.40625 -12.1875 C 12.6875 -13.050781 11.726562 -13.484375 10.53125 -13.484375 C 9.34375 -13.484375 8.382812 -13.054688 7.65625 -12.203125 C 6.9375 -11.359375 6.566406 -10.242188 6.546875 -8.859375 C 6.566406 -7.460938 6.9375 -6.332031 7.65625 -5.46875 Z M 7.65625 -5.46875 "/></g></g></g><g fill="#136d43" fill-opacity="1"><g transform="translate(165.51127, 398.745334)"><g/></g></g><g fill="#136d43" fill-opacity="1"><g transform="translate(173.274763, 398.745334)"><g><path d="M 10.046875 -18 C 11.804688 -18 13.375 -17.648438 14.75 -16.953125 C 16.125 -16.265625 17.195312 -15.28125 17.96875 -14 L 13.875 -11.53125 C 12.988281 -12.757812 11.785156 -13.375 10.265625 -13.375 C 9.171875 -13.375 8.273438 -12.960938 7.578125 -12.140625 C 6.890625 -11.316406 6.546875 -10.234375 6.546875 -8.890625 C 6.546875 -7.523438 6.882812 -6.425781 7.5625 -5.59375 C 8.25 -4.769531 9.148438 -4.359375 10.265625 -4.359375 C 11.941406 -4.359375 13.15625 -5.03125 13.90625 -6.375 L 18.0625 -3.9375 C 17.34375 -2.613281 16.28125 -1.59375 14.875 -0.875 C 13.476562 -0.15625 11.84375 0.203125 9.96875 0.203125 C 7.21875 0.203125 5 -0.628906 3.3125 -2.296875 C 1.632812 -3.960938 0.796875 -6.148438 0.796875 -8.859375 C 0.796875 -11.585938 1.644531 -13.789062 3.34375 -15.46875 C 5.050781 -17.15625 7.285156 -18 10.046875 -18 Z M 10.046875 -18 "/></g></g></g><g fill="#136d43" fill-opacity="1"><g transform="translate(191.940205, 398.745334)"><g><path d="M 10.265625 -18.0625 C 12.710938 -18.0625 14.613281 -17.492188 15.96875 -16.359375 C 17.320312 -15.234375 18.007812 -13.65625 18.03125 -11.625 L 18.03125 0 L 12.453125 0 L 12.453125 -2.046875 C 11.285156 -0.503906 9.46875 0.265625 7 0.265625 C 5.125 0.265625 3.632812 -0.25 2.53125 -1.28125 C 1.4375 -2.320312 0.890625 -3.664062 0.890625 -5.3125 C 0.890625 -7.007812 1.476562 -8.328125 2.65625 -9.265625 C 3.832031 -10.203125 5.523438 -10.679688 7.734375 -10.703125 L 12.421875 -10.703125 L 12.421875 -10.96875 C 12.421875 -11.84375 12.128906 -12.53125 11.546875 -13.03125 C 10.960938 -13.53125 10.097656 -13.78125 8.953125 -13.78125 C 7.347656 -13.78125 5.578125 -13.28125 3.640625 -12.28125 L 2.015625 -16.046875 C 4.898438 -17.390625 7.648438 -18.0625 10.265625 -18.0625 Z M 8.75 -3.59375 C 9.65625 -3.59375 10.445312 -3.816406 11.125 -4.265625 C 11.8125 -4.722656 12.242188 -5.316406 12.421875 -6.046875 L 12.421875 -7.625 L 8.8125 -7.625 C 7.101562 -7.625 6.25 -6.988281 6.25 -5.71875 C 6.25 -5.050781 6.46875 -4.53125 6.90625 -4.15625 C 7.34375 -3.78125 7.957031 -3.59375 8.75 -3.59375 Z M 8.75 -3.59375 "/></g></g></g><g fill="#136d43" fill-opacity="1"><g transform="translate(211.861039, 398.745334)"><g><path d="M 13.484375 -18 C 15.992188 -18 18.007812 -17.15625 19.53125 -15.46875 C 21.0625 -13.789062 21.828125 -11.570312 21.828125 -8.8125 C 21.828125 -6.101562 21.078125 -3.921875 19.578125 -2.265625 C 18.085938 -0.617188 16.097656 0.203125 13.609375 0.203125 C 11.273438 0.203125 9.457031 -0.65625 8.15625 -2.375 L 8.15625 6.40625 L 2.4375 6.40625 L 2.4375 -17.796875 L 8.15625 -17.796875 L 8.15625 -15.453125 C 9.476562 -17.148438 11.253906 -18 13.484375 -18 Z M 12.09375 -4.328125 C 13.28125 -4.328125 14.242188 -4.757812 14.984375 -5.625 C 15.722656 -6.5 16.09375 -7.617188 16.09375 -8.984375 C 16.09375 -10.347656 15.722656 -11.457031 14.984375 -12.3125 C 14.242188 -13.175781 13.28125 -13.609375 12.09375 -13.609375 C 10.945312 -13.609375 10.003906 -13.175781 9.265625 -12.3125 C 8.523438 -11.457031 8.15625 -10.347656 8.15625 -8.984375 C 8.15625 -7.597656 8.519531 -6.472656 9.25 -5.609375 C 9.976562 -4.753906 10.925781 -4.328125 12.09375 -4.328125 Z M 12.09375 -4.328125 "/></g></g></g><g fill="#136d43" fill-opacity="1"><g transform="translate(234.589948, 398.745334)"><g><path d="M 10.265625 -18.0625 C 12.710938 -18.0625 14.613281 -17.492188 15.96875 -16.359375 C 17.320312 -15.234375 18.007812 -13.65625 18.03125 -11.625 L 18.03125 0 L 12.453125 0 L 12.453125 -2.046875 C 11.285156 -0.503906 9.46875 0.265625 7 0.265625 C 5.125 0.265625 3.632812 -0.25 2.53125 -1.28125 C 1.4375 -2.320312 0.890625 -3.664062 0.890625 -5.3125 C 0.890625 -7.007812 1.476562 -8.328125 2.65625 -9.265625 C 3.832031 -10.203125 5.523438 -10.679688 7.734375 -10.703125 L 12.421875 -10.703125 L 12.421875 -10.96875 C 12.421875 -11.84375 12.128906 -12.53125 11.546875 -13.03125 C 10.960938 -13.53125 10.097656 -13.78125 8.953125 -13.78125 C 7.347656 -13.78125 5.578125 -13.28125 3.640625 -12.28125 L 2.015625 -16.046875 C 4.898438 -17.390625 7.648438 -18.0625 10.265625 -18.0625 Z M 8.75 -3.59375 C 9.65625 -3.59375 10.445312 -3.816406 11.125 -4.265625 C 11.8125 -4.722656 12.242188 -5.316406 12.421875 -6.046875 L 12.421875 -7.625 L 8.8125 -7.625 C 7.101562 -7.625 6.25 -6.988281 6.25 -5.71875 C 6.25 -5.050781 6.46875 -4.53125 6.90625 -4.15625 C 7.34375 -3.78125 7.957031 -3.59375 8.75 -3.59375 Z M 8.75 -3.59375 "/></g></g></g><g fill="#136d43" fill-opacity="1"><g transform="translate(254.510782, 398.745334)"><g><path d="M 10.046875 -18 C 11.804688 -18 13.375 -17.648438 14.75 -16.953125 C 16.125 -16.265625 17.195312 -15.28125 17.96875 -14 L 13.875 -11.53125 C 12.988281 -12.757812 11.785156 -13.375 10.265625 -13.375 C 9.171875 -13.375 8.273438 -12.960938 7.578125 -12.140625 C 6.890625 -11.316406 6.546875 -10.234375 6.546875 -8.890625 C 6.546875 -7.523438 6.882812 -6.425781 7.5625 -5.59375 C 8.25 -4.769531 9.148438 -4.359375 10.265625 -4.359375 C 11.941406 -4.359375 13.15625 -5.03125 13.90625 -6.375 L 18.0625 -3.9375 C 17.34375 -2.613281 16.28125 -1.59375 14.875 -0.875 C 13.476562 -0.15625 11.84375 0.203125 9.96875 0.203125 C 7.21875 0.203125 5 -0.628906 3.3125 -2.296875 C 1.632812 -3.960938 0.796875 -6.148438 0.796875 -8.859375 C 0.796875 -11.585938 1.644531 -13.789062 3.34375 -15.46875 C 5.050781 -17.15625 7.285156 -18 10.046875 -18 Z M 10.046875 -18 "/></g></g></g><g fill="#136d43" fill-opacity="1"><g transform="translate(273.176234, 398.745334)"><g><path d="M 2.984375 -25.078125 C 3.546875 -25.640625 4.265625 -25.921875 5.140625 -25.921875 C 6.023438 -25.921875 6.75 -25.640625 7.3125 -25.078125 C 7.875 -24.523438 8.15625 -23.804688 8.15625 -22.921875 C 8.15625 -22.046875 7.875 -21.320312 7.3125 -20.75 C 6.75 -20.175781 6.023438 -19.890625 5.140625 -19.890625 C 4.265625 -19.890625 3.546875 -20.175781 2.984375 -20.75 C 2.421875 -21.320312 2.140625 -22.046875 2.140625 -22.921875 C 2.140625 -23.804688 2.421875 -24.523438 2.984375 -25.078125 Z M 7.953125 0 L 2.28125 0 L 2.28125 -17.796875 L 7.953125 -17.796875 Z M 7.953125 0 "/></g></g></g><g fill="#136d43" fill-opacity="1"><g transform="translate(283.549598, 398.745334)"><g><path d="M 12.65625 -4.921875 L 13.78125 -0.953125 C 12.382812 -0.140625 10.796875 0.265625 9.015625 0.265625 C 7.253906 0.265625 5.828125 -0.222656 4.734375 -1.203125 C 3.648438 -2.179688 3.109375 -3.578125 3.109375 -5.390625 L 3.109375 -13.25 L 0.625 -13.25 L 0.625 -16.984375 L 3.109375 -16.984375 L 3.109375 -21.9375 L 8.78125 -21.9375 L 8.78125 -17.015625 L 13.4375 -17.015625 L 13.4375 -13.25 L 8.78125 -13.25 L 8.78125 -6.28125 C 8.78125 -5.59375 8.914062 -5.085938 9.1875 -4.765625 C 9.46875 -4.453125 9.882812 -4.304688 10.4375 -4.328125 C 10.96875 -4.328125 11.707031 -4.523438 12.65625 -4.921875 Z M 12.65625 -4.921875 "/></g></g></g><g fill="#136d43" fill-opacity="1"><g transform="translate(298.019458, 398.745334)"><g><path d="M 19.390625 -17.796875 L 11.6875 1.84375 C 10.375 5.0625 8.085938 6.671875 4.828125 6.671875 C 2.929688 6.671875 1.203125 6.066406 -0.359375 4.859375 L 2.015625 0.953125 C 2.804688 1.597656 3.585938 1.921875 4.359375 1.921875 C 5.367188 1.921875 6.109375 1.445312 6.578125 0.5 L 7 -0.390625 L -0.390625 -17.796875 L 5.484375 -17.796875 L 9.84375 -5.984375 L 13.703125 -17.796875 Z M 19.390625 -17.796875 "/></g></g></g><g fill="#136d43" fill-opacity="1"><g transform="translate(317.279552, 398.745334)"><g><path d="M 2.015625 -4.484375 C 2.523438 -4.992188 3.1875 -5.25 4 -5.25 C 4.8125 -5.25 5.472656 -4.992188 5.984375 -4.484375 C 6.503906 -3.984375 6.765625 -3.320312 6.765625 -2.5 C 6.765625 -1.6875 6.503906 -1.019531 5.984375 -0.5 C 5.472656 0.0078125 4.8125 0.265625 4 0.265625 C 3.1875 0.265625 2.523438 0.0078125 2.015625 -0.5 C 1.503906 -1.019531 1.25 -1.6875 1.25 -2.5 C 1.25 -3.320312 1.503906 -3.984375 2.015625 -4.484375 Z M 2.015625 -4.484375 "/></g></g></g><g fill="#136d43" fill-opacity="1"><g transform="translate(325.394458, 398.745334)"><g/></g></g><g fill="#136d43" fill-opacity="1"><g transform="translate(0.0000108667, 438.664171)"><g><path d="M 16.25 0 L 12.8125 -6.5 L 8.1875 -6.5 L 8.1875 0 L 2.3125 0 L 2.3125 -23.125 L 12.65625 -23.125 C 15.71875 -23.125 18.082031 -22.421875 19.75 -21.015625 C 21.425781 -19.617188 22.265625 -17.632812 22.265625 -15.0625 C 22.265625 -11.5 20.863281 -9.019531 18.0625 -7.625 L 22.921875 0 Z M 8.1875 -11.125 L 12.65625 -11.125 C 13.925781 -11.125 14.914062 -11.441406 15.625 -12.078125 C 16.332031 -12.722656 16.6875 -13.648438 16.6875 -14.859375 C 16.6875 -16.046875 16.332031 -16.945312 15.625 -17.5625 C 14.914062 -18.1875 13.925781 -18.5 12.65625 -18.5 L 8.1875 -18.5 Z M 8.1875 -11.125 "/></g></g></g><g fill="#136d43" fill-opacity="1"><g transform="translate(24.017313, 438.664171)"><g><path d="M 10.078125 -18 C 13.160156 -18 15.476562 -17.050781 17.03125 -15.15625 C 18.582031 -13.269531 19.257812 -10.671875 19.0625 -7.359375 L 6.546875 -7.359375 C 6.828125 -6.304688 7.332031 -5.492188 8.0625 -4.921875 C 8.789062 -4.347656 9.679688 -4.0625 10.734375 -4.0625 C 12.359375 -4.0625 13.78125 -4.664062 15 -5.875 L 18 -2.9375 C 16.082031 -0.84375 13.492188 0.203125 10.234375 0.203125 C 7.347656 0.203125 5.050781 -0.617188 3.34375 -2.265625 C 1.644531 -3.921875 0.796875 -6.117188 0.796875 -8.859375 C 0.796875 -11.609375 1.644531 -13.816406 3.34375 -15.484375 C 5.050781 -17.160156 7.296875 -18 10.078125 -18 Z M 6.4375 -10.4375 L 13.578125 -10.4375 C 13.578125 -11.519531 13.257812 -12.390625 12.625 -13.046875 C 12 -13.703125 11.171875 -14.03125 10.140625 -14.03125 C 9.171875 -14.03125 8.351562 -13.707031 7.6875 -13.0625 C 7.03125 -12.414062 6.613281 -11.539062 6.4375 -10.4375 Z M 6.4375 -10.4375 "/></g></g></g><g fill="#136d43" fill-opacity="1"><g transform="translate(44.004196, 438.664171)"><g><path d="M 20.21875 -24.515625 L 20.21875 0 L 14.5 0 L 14.5 -2.34375 C 13.195312 -0.625 11.414062 0.234375 9.15625 0.234375 C 6.644531 0.234375 4.628906 -0.613281 3.109375 -2.3125 C 1.585938 -4.007812 0.828125 -6.234375 0.828125 -8.984375 C 0.828125 -11.710938 1.570312 -13.898438 3.0625 -15.546875 C 4.5625 -17.203125 6.546875 -18.03125 9.015625 -18.03125 C 11.367188 -18.03125 13.195312 -17.171875 14.5 -15.453125 L 14.5 -24.515625 Z M 7.65625 -5.46875 C 8.382812 -4.613281 9.34375 -4.1875 10.53125 -4.1875 C 11.726562 -4.1875 12.6875 -4.613281 13.40625 -5.46875 C 14.132812 -6.332031 14.5 -7.460938 14.5 -8.859375 C 14.5 -10.222656 14.132812 -11.332031 13.40625 -12.1875 C 12.6875 -13.050781 11.726562 -13.484375 10.53125 -13.484375 C 9.34375 -13.484375 8.382812 -13.054688 7.65625 -12.203125 C 6.9375 -11.359375 6.566406 -10.242188 6.546875 -8.859375 C 6.566406 -7.460938 6.9375 -6.332031 7.65625 -5.46875 Z M 7.65625 -5.46875 "/></g></g></g><g fill="#136d43" fill-opacity="1"><g transform="translate(66.766139, 438.664171)"><g><path d="M 19.625 -17.796875 L 19.625 0 L 13.90625 0 L 13.90625 -2.9375 C 12.695312 -0.820312 10.769531 0.234375 8.125 0.234375 C 6.1875 0.234375 4.640625 -0.378906 3.484375 -1.609375 C 2.328125 -2.847656 1.75 -4.503906 1.75 -6.578125 L 1.75 -17.796875 L 7.46875 -17.796875 L 7.46875 -8.1875 C 7.46875 -7.132812 7.734375 -6.304688 8.265625 -5.703125 C 8.804688 -5.097656 9.53125 -4.796875 10.4375 -4.796875 C 11.519531 -4.816406 12.367188 -5.21875 12.984375 -6 C 13.597656 -6.78125 13.90625 -7.785156 13.90625 -9.015625 L 13.90625 -17.796875 Z M 19.625 -17.796875 "/></g></g></g><g fill="#136d43" fill-opacity="1"><g transform="translate(88.768239, 438.664171)"><g><path d="M 10.046875 -18 C 11.804688 -18 13.375 -17.648438 14.75 -16.953125 C 16.125 -16.265625 17.195312 -15.28125 17.96875 -14 L 13.875 -11.53125 C 12.988281 -12.757812 11.785156 -13.375 10.265625 -13.375 C 9.171875 -13.375 8.273438 -12.960938 7.578125 -12.140625 C 6.890625 -11.316406 6.546875 -10.234375 6.546875 -8.890625 C 6.546875 -7.523438 6.882812 -6.425781 7.5625 -5.59375 C 8.25 -4.769531 9.148438 -4.359375 10.265625 -4.359375 C 11.941406 -4.359375 13.15625 -5.03125 13.90625 -6.375 L 18.0625 -3.9375 C 17.34375 -2.613281 16.28125 -1.59375 14.875 -0.875 C 13.476562 -0.15625 11.84375 0.203125 9.96875 0.203125 C 7.21875 0.203125 5 -0.628906 3.3125 -2.296875 C 1.632812 -3.960938 0.796875 -6.148438 0.796875 -8.859375 C 0.796875 -11.585938 1.644531 -13.789062 3.34375 -15.46875 C 5.050781 -17.15625 7.285156 -18 10.046875 -18 Z M 10.046875 -18 "/></g></g></g><g fill="#136d43" fill-opacity="1"><g transform="translate(107.433681, 438.664171)"><g><path d="M 10.078125 -18 C 13.160156 -18 15.476562 -17.050781 17.03125 -15.15625 C 18.582031 -13.269531 19.257812 -10.671875 19.0625 -7.359375 L 6.546875 -7.359375 C 6.828125 -6.304688 7.332031 -5.492188 8.0625 -4.921875 C 8.789062 -4.347656 9.679688 -4.0625 10.734375 -4.0625 C 12.359375 -4.0625 13.78125 -4.664062 15 -5.875 L 18 -2.9375 C 16.082031 -0.84375 13.492188 0.203125 10.234375 0.203125 C 7.347656 0.203125 5.050781 -0.617188 3.34375 -2.265625 C 1.644531 -3.921875 0.796875 -6.117188 0.796875 -8.859375 C 0.796875 -11.609375 1.644531 -13.816406 3.34375 -15.484375 C 5.050781 -17.160156 7.296875 -18 10.078125 -18 Z M 6.4375 -10.4375 L 13.578125 -10.4375 C 13.578125 -11.519531 13.257812 -12.390625 12.625 -13.046875 C 12 -13.703125 11.171875 -14.03125 10.140625 -14.03125 C 9.171875 -14.03125 8.351562 -13.707031 7.6875 -13.0625 C 7.03125 -12.414062 6.613281 -11.539062 6.4375 -10.4375 Z M 6.4375 -10.4375 "/></g></g></g><g fill="#136d43" fill-opacity="1"><g transform="translate(127.420562, 438.664171)"><g><path d="M 20.21875 -24.515625 L 20.21875 0 L 14.5 0 L 14.5 -2.34375 C 13.195312 -0.625 11.414062 0.234375 9.15625 0.234375 C 6.644531 0.234375 4.628906 -0.613281 3.109375 -2.3125 C 1.585938 -4.007812 0.828125 -6.234375 0.828125 -8.984375 C 0.828125 -11.710938 1.570312 -13.898438 3.0625 -15.546875 C 4.5625 -17.203125 6.546875 -18.03125 9.015625 -18.03125 C 11.367188 -18.03125 13.195312 -17.171875 14.5 -15.453125 L 14.5 -24.515625 Z M 7.65625 -5.46875 C 8.382812 -4.613281 9.34375 -4.1875 10.53125 -4.1875 C 11.726562 -4.1875 12.6875 -4.613281 13.40625 -5.46875 C 14.132812 -6.332031 14.5 -7.460938 14.5 -8.859375 C 14.5 -10.222656 14.132812 -11.332031 13.40625 -12.1875 C 12.6875 -13.050781 11.726562 -13.484375 10.53125 -13.484375 C 9.34375 -13.484375 8.382812 -13.054688 7.65625 -12.203125 C 6.9375 -11.359375 6.566406 -10.242188 6.546875 -8.859375 C 6.566406 -7.460938 6.9375 -6.332031 7.65625 -5.46875 Z M 7.65625 -5.46875 "/></g></g></g><g fill="#136d43" fill-opacity="1"><g transform="translate(150.182499, 438.664171)"><g/></g></g><g fill="#136d43" fill-opacity="1"><g transform="translate(157.945992, 438.664171)"><g><path d="M 8.65625 -18.0625 C 11.269531 -18.0625 13.710938 -17.390625 15.984375 -16.046875 L 14.03125 -12.359375 C 11.832031 -13.546875 9.960938 -14.140625 8.421875 -14.140625 C 7.253906 -14.140625 6.671875 -13.734375 6.671875 -12.921875 C 6.671875 -12.472656 6.988281 -12.097656 7.625 -11.796875 C 8.269531 -11.503906 9.050781 -11.238281 9.96875 -11 C 10.894531 -10.757812 11.816406 -10.457031 12.734375 -10.09375 C 13.648438 -9.726562 14.425781 -9.148438 15.0625 -8.359375 C 15.695312 -7.566406 16.015625 -6.597656 16.015625 -5.453125 C 16.015625 -3.671875 15.320312 -2.273438 13.9375 -1.265625 C 12.550781 -0.265625 10.742188 0.234375 8.515625 0.234375 C 5.367188 0.234375 2.707031 -0.601562 0.53125 -2.28125 L 2.34375 -5.90625 C 4.4375 -4.4375 6.539062 -3.703125 8.65625 -3.703125 C 9.957031 -3.703125 10.609375 -4.109375 10.609375 -4.921875 C 10.609375 -5.378906 10.289062 -5.765625 9.65625 -6.078125 C 9.03125 -6.390625 8.265625 -6.664062 7.359375 -6.90625 C 6.460938 -7.144531 5.5625 -7.445312 4.65625 -7.8125 C 3.75 -8.175781 2.984375 -8.742188 2.359375 -9.515625 C 1.734375 -10.285156 1.421875 -11.253906 1.421875 -12.421875 C 1.421875 -14.203125 2.09375 -15.585938 3.4375 -16.578125 C 4.78125 -17.566406 6.519531 -18.0625 8.65625 -18.0625 Z M 8.65625 -18.0625 "/></g></g></g><g fill="#136d43" fill-opacity="1"><g transform="translate(174.992663, 438.664171)"><g><path d="M 12.65625 -4.921875 L 13.78125 -0.953125 C 12.382812 -0.140625 10.796875 0.265625 9.015625 0.265625 C 7.253906 0.265625 5.828125 -0.222656 4.734375 -1.203125 C 3.648438 -2.179688 3.109375 -3.578125 3.109375 -5.390625 L 3.109375 -13.25 L 0.625 -13.25 L 0.625 -16.984375 L 3.109375 -16.984375 L 3.109375 -21.9375 L 8.78125 -21.9375 L 8.78125 -17.015625 L 13.4375 -17.015625 L 13.4375 -13.25 L 8.78125 -13.25 L 8.78125 -6.28125 C 8.78125 -5.59375 8.914062 -5.085938 9.1875 -4.765625 C 9.46875 -4.453125 9.882812 -4.304688 10.4375 -4.328125 C 10.96875 -4.328125 11.707031 -4.523438 12.65625 -4.921875 Z M 12.65625 -4.921875 "/></g></g></g><g fill="#136d43" fill-opacity="1"><g transform="translate(189.462523, 438.664171)"><g><path d="M 2.984375 -25.078125 C 3.546875 -25.640625 4.265625 -25.921875 5.140625 -25.921875 C 6.023438 -25.921875 6.75 -25.640625 7.3125 -25.078125 C 7.875 -24.523438 8.15625 -23.804688 8.15625 -22.921875 C 8.15625 -22.046875 7.875 -21.320312 7.3125 -20.75 C 6.75 -20.175781 6.023438 -19.890625 5.140625 -19.890625 C 4.265625 -19.890625 3.546875 -20.175781 2.984375 -20.75 C 2.421875 -21.320312 2.140625 -22.046875 2.140625 -22.921875 C 2.140625 -23.804688 2.421875 -24.523438 2.984375 -25.078125 Z M 7.953125 0 L 2.28125 0 L 2.28125 -17.796875 L 7.953125 -17.796875 Z M 7.953125 0 "/></g></g></g><g fill="#136d43" fill-opacity="1"><g transform="translate(199.835887, 438.664171)"><g><path d="M 19.296875 -17.796875 L 19.296875 -1.625 C 19.296875 0.882812 18.40625 2.890625 16.625 4.390625 C 14.851562 5.890625 12.523438 6.640625 9.640625 6.640625 C 6.691406 6.640625 4.050781 5.859375 1.71875 4.296875 L 3.703125 0.421875 C 5.421875 1.617188 7.257812 2.21875 9.21875 2.21875 C 10.582031 2.21875 11.65625 1.882812 12.4375 1.21875 C 13.21875 0.5625 13.609375 -0.328125 13.609375 -1.453125 L 13.609375 -3.34375 C 12.398438 -1.75 10.691406 -0.953125 8.484375 -0.953125 C 6.222656 -0.953125 4.378906 -1.742188 2.953125 -3.328125 C 1.535156 -4.921875 0.828125 -7.003906 0.828125 -9.578125 C 0.828125 -12.085938 1.519531 -14.117188 2.90625 -15.671875 C 4.289062 -17.222656 6.109375 -18 8.359375 -18 C 10.628906 -18.019531 12.378906 -17.226562 13.609375 -15.625 L 13.609375 -17.796875 Z M 9.90625 -5.09375 C 11.007812 -5.09375 11.898438 -5.492188 12.578125 -6.296875 C 13.265625 -7.097656 13.609375 -8.132812 13.609375 -9.40625 C 13.609375 -10.707031 13.265625 -11.757812 12.578125 -12.5625 C 11.898438 -13.375 11.007812 -13.78125 9.90625 -13.78125 C 8.78125 -13.78125 7.867188 -13.375 7.171875 -12.5625 C 6.484375 -11.757812 6.140625 -10.707031 6.140625 -9.40625 C 6.140625 -8.132812 6.484375 -7.097656 7.171875 -6.296875 C 7.867188 -5.492188 8.78125 -5.09375 9.90625 -5.09375 Z M 9.90625 -5.09375 "/></g></g></g><g fill="#136d43" fill-opacity="1"><g transform="translate(221.309414, 438.664171)"><g><path d="M 26.0625 -18.0625 C 28.019531 -18.0625 29.578125 -17.4375 30.734375 -16.1875 C 31.890625 -14.945312 32.46875 -13.296875 32.46875 -11.234375 L 32.46875 0 L 26.78125 0 L 26.78125 -9.640625 C 26.78125 -10.703125 26.503906 -11.535156 25.953125 -12.140625 C 25.410156 -12.742188 24.664062 -13.046875 23.71875 -13.046875 C 22.65625 -13.023438 21.8125 -12.625 21.1875 -11.84375 C 20.5625 -11.0625 20.25 -10.050781 20.25 -8.8125 L 20.25 0 L 14.53125 0 L 14.53125 -9.640625 C 14.53125 -10.703125 14.257812 -11.535156 13.71875 -12.140625 C 13.1875 -12.742188 12.445312 -13.046875 11.5 -13.046875 C 10.414062 -13.023438 9.550781 -12.617188 8.90625 -11.828125 C 8.269531 -11.035156 7.953125 -10.03125 7.953125 -8.8125 L 7.953125 0 L 2.28125 0 L 2.28125 -17.796875 L 7.953125 -17.796875 L 7.953125 -14.859375 C 9.171875 -16.953125 11.132812 -18.019531 13.84375 -18.0625 C 15.269531 -18.0625 16.503906 -17.703125 17.546875 -16.984375 C 18.597656 -16.273438 19.34375 -15.289062 19.78125 -14.03125 C 20.945312 -16.675781 23.039062 -18.019531 26.0625 -18.0625 Z M 26.0625 -18.0625 "/></g></g></g><g fill="#136d43" fill-opacity="1"><g transform="translate(255.667047, 438.664171)"><g><path d="M 10.265625 -18.0625 C 12.710938 -18.0625 14.613281 -17.492188 15.96875 -16.359375 C 17.320312 -15.234375 18.007812 -13.65625 18.03125 -11.625 L 18.03125 0 L 12.453125 0 L 12.453125 -2.046875 C 11.285156 -0.503906 9.46875 0.265625 7 0.265625 C 5.125 0.265625 3.632812 -0.25 2.53125 -1.28125 C 1.4375 -2.320312 0.890625 -3.664062 0.890625 -5.3125 C 0.890625 -7.007812 1.476562 -8.328125 2.65625 -9.265625 C 3.832031 -10.203125 5.523438 -10.679688 7.734375 -10.703125 L 12.421875 -10.703125 L 12.421875 -10.96875 C 12.421875 -11.84375 12.128906 -12.53125 11.546875 -13.03125 C 10.960938 -13.53125 10.097656 -13.78125 8.953125 -13.78125 C 7.347656 -13.78125 5.578125 -13.28125 3.640625 -12.28125 L 2.015625 -16.046875 C 4.898438 -17.390625 7.648438 -18.0625 10.265625 -18.0625 Z M 8.75 -3.59375 C 9.65625 -3.59375 10.445312 -3.816406 11.125 -4.265625 C 11.8125 -4.722656 12.242188 -5.316406 12.421875 -6.046875 L 12.421875 -7.625 L 8.8125 -7.625 C 7.101562 -7.625 6.25 -6.988281 6.25 -5.71875 C 6.25 -5.050781 6.46875 -4.53125 6.90625 -4.15625 C 7.34375 -3.78125 7.957031 -3.59375 8.75 -3.59375 Z M 8.75 -3.59375 "/></g></g></g><g fill="#136d43" fill-opacity="1"><g transform="translate(275.587881, 438.664171)"><g/></g></g><g fill="#136d43" fill-opacity="1"><g transform="translate(283.351385, 438.664171)"><g><path d="M 24.671875 0 L 19.03125 0 L 15.53125 -11.296875 L 12.015625 0 L 6.34375 0 L -0.171875 -17.796875 L 5.640625 -17.796875 L 9.3125 -5.484375 L 12.875 -17.796875 L 18.328125 -17.796875 L 22 -5.484375 L 25.59375 -17.796875 L 31.1875 -17.796875 Z M 24.671875 0 "/></g></g></g><g fill="#136d43" fill-opacity="1"><g transform="translate(314.4054, 438.664171)"><g><path d="M 2.984375 -25.078125 C 3.546875 -25.640625 4.265625 -25.921875 5.140625 -25.921875 C 6.023438 -25.921875 6.75 -25.640625 7.3125 -25.078125 C 7.875 -24.523438 8.15625 -23.804688 8.15625 -22.921875 C 8.15625 -22.046875 7.875 -21.320312 7.3125 -20.75 C 6.75 -20.175781 6.023438 -19.890625 5.140625 -19.890625 C 4.265625 -19.890625 3.546875 -20.175781 2.984375 -20.75 C 2.421875 -21.320312 2.140625 -22.046875 2.140625 -22.921875 C 2.140625 -23.804688 2.421875 -24.523438 2.984375 -25.078125 Z M 7.953125 0 L 2.28125 0 L 2.28125 -17.796875 L 7.953125 -17.796875 Z M 7.953125 0 "/></g></g></g><g fill="#136d43" fill-opacity="1"><g transform="translate(324.778765, 438.664171)"><g><path d="M 12.65625 -4.921875 L 13.78125 -0.953125 C 12.382812 -0.140625 10.796875 0.265625 9.015625 0.265625 C 7.253906 0.265625 5.828125 -0.222656 4.734375 -1.203125 C 3.648438 -2.179688 3.109375 -3.578125 3.109375 -5.390625 L 3.109375 -13.25 L 0.625 -13.25 L 0.625 -16.984375 L 3.109375 -16.984375 L 3.109375 -21.9375 L 8.78125 -21.9375 L 8.78125 -17.015625 L 13.4375 -17.015625 L 13.4375 -13.25 L 8.78125 -13.25 L 8.78125 -6.28125 C 8.78125 -5.59375 8.914062 -5.085938 9.1875 -4.765625 C 9.46875 -4.453125 9.882812 -4.304688 10.4375 -4.328125 C 10.96875 -4.328125 11.707031 -4.523438 12.65625 -4.921875 Z M 12.65625 -4.921875 "/></g></g></g><g fill="#136d43" fill-opacity="1"><g transform="translate(339.248624, 438.664171)"><g><path d="M 14.140625 -18.0625 C 16.097656 -18.0625 17.671875 -17.4375 18.859375 -16.1875 C 20.046875 -14.945312 20.640625 -13.296875 20.640625 -11.234375 L 20.640625 0 L 14.9375 0 L 14.9375 -9.640625 C 14.9375 -10.679688 14.65625 -11.503906 14.09375 -12.109375 C 13.53125 -12.710938 12.765625 -13.015625 11.796875 -13.015625 C 10.691406 -13.015625 9.804688 -12.617188 9.140625 -11.828125 C 8.484375 -11.035156 8.15625 -10.019531 8.15625 -8.78125 L 8.15625 0 L 2.4375 0 L 2.4375 -24.515625 L 8.15625 -24.515625 L 8.15625 -14.859375 C 9.414062 -16.953125 11.410156 -18.019531 14.140625 -18.0625 Z M 14.140625 -18.0625 "/></g></g></g><g fill="#136d43" fill-opacity="1"><g transform="translate(361.74628, 438.664171)"><g/></g></g><g fill="#136d43" fill-opacity="1"><g transform="translate(369.509784, 438.664171)"><g><path d="M 8.65625 -18.0625 C 11.269531 -18.0625 13.710938 -17.390625 15.984375 -16.046875 L 14.03125 -12.359375 C 11.832031 -13.546875 9.960938 -14.140625 8.421875 -14.140625 C 7.253906 -14.140625 6.671875 -13.734375 6.671875 -12.921875 C 6.671875 -12.472656 6.988281 -12.097656 7.625 -11.796875 C 8.269531 -11.503906 9.050781 -11.238281 9.96875 -11 C 10.894531 -10.757812 11.816406 -10.457031 12.734375 -10.09375 C 13.648438 -9.726562 14.425781 -9.148438 15.0625 -8.359375 C 15.695312 -7.566406 16.015625 -6.597656 16.015625 -5.453125 C 16.015625 -3.671875 15.320312 -2.273438 13.9375 -1.265625 C 12.550781 -0.265625 10.742188 0.234375 8.515625 0.234375 C 5.367188 0.234375 2.707031 -0.601562 0.53125 -2.28125 L 2.34375 -5.90625 C 4.4375 -4.4375 6.539062 -3.703125 8.65625 -3.703125 C 9.957031 -3.703125 10.609375 -4.109375 10.609375 -4.921875 C 10.609375 -5.378906 10.289062 -5.765625 9.65625 -6.078125 C 9.03125 -6.390625 8.265625 -6.664062 7.359375 -6.90625 C 6.460938 -7.144531 5.5625 -7.445312 4.65625 -7.8125 C 3.75 -8.175781 2.984375 -8.742188 2.359375 -9.515625 C 1.734375 -10.285156 1.421875 -11.253906 1.421875 -12.421875 C 1.421875 -14.203125 2.09375 -15.585938 3.4375 -16.578125 C 4.78125 -17.566406 6.519531 -18.0625 8.65625 -18.0625 Z M 8.65625 -18.0625 "/></g></g></g><g fill="#136d43" fill-opacity="1"><g transform="translate(386.556465, 438.664171)"><g><path d="M 19.625 -17.796875 L 19.625 0 L 13.90625 0 L 13.90625 -2.9375 C 12.695312 -0.820312 10.769531 0.234375 8.125 0.234375 C 6.1875 0.234375 4.640625 -0.378906 3.484375 -1.609375 C 2.328125 -2.847656 1.75 -4.503906 1.75 -6.578125 L 1.75 -17.796875 L 7.46875 -17.796875 L 7.46875 -8.1875 C 7.46875 -7.132812 7.734375 -6.304688 8.265625 -5.703125 C 8.804688 -5.097656 9.53125 -4.796875 10.4375 -4.796875 C 11.519531 -4.816406 12.367188 -5.21875 12.984375 -6 C 13.597656 -6.78125 13.90625 -7.785156 13.90625 -9.015625 L 13.90625 -17.796875 Z M 19.625 -17.796875 "/></g></g></g><g fill="#136d43" fill-opacity="1"><g transform="translate(408.558555, 438.664171)"><g><path d="M 8 -17.796875 L 8 -14.796875 C 9.25 -16.929688 11.175781 -18.019531 13.78125 -18.0625 L 13.78125 -12.921875 C 12.144531 -13.066406 10.804688 -12.789062 9.765625 -12.09375 C 8.734375 -11.40625 8.144531 -10.425781 8 -9.15625 L 8 0 L 2.28125 0 L 2.28125 -17.796875 Z M 8 -17.796875 "/></g></g></g><g fill="#136d43" fill-opacity="1"><g transform="translate(422.764123, 438.664171)"><g><path d="M 13.484375 -18 C 15.992188 -18 18.007812 -17.15625 19.53125 -15.46875 C 21.0625 -13.789062 21.828125 -11.570312 21.828125 -8.8125 C 21.828125 -6.101562 21.078125 -3.921875 19.578125 -2.265625 C 18.085938 -0.617188 16.097656 0.203125 13.609375 0.203125 C 11.273438 0.203125 9.457031 -0.65625 8.15625 -2.375 L 8.15625 6.40625 L 2.4375 6.40625 L 2.4375 -17.796875 L 8.15625 -17.796875 L 8.15625 -15.453125 C 9.476562 -17.148438 11.253906 -18 13.484375 -18 Z M 12.09375 -4.328125 C 13.28125 -4.328125 14.242188 -4.757812 14.984375 -5.625 C 15.722656 -6.5 16.09375 -7.617188 16.09375 -8.984375 C 16.09375 -10.347656 15.722656 -11.457031 14.984375 -12.3125 C 14.242188 -13.175781 13.28125 -13.609375 12.09375 -13.609375 C 10.945312 -13.609375 10.003906 -13.175781 9.265625 -12.3125 C 8.523438 -11.457031 8.15625 -10.347656 8.15625 -8.984375 C 8.15625 -7.597656 8.519531 -6.472656 9.25 -5.609375 C 9.976562 -4.753906 10.925781 -4.328125 12.09375 -4.328125 Z M 12.09375 -4.328125 "/></g></g></g><g fill="#136d43" fill-opacity="1"><g transform="translate(445.493032, 438.664171)"><g><path d="M 8.15625 0 L 2.4375 0 L 2.4375 -24.515625 L 8.15625 -24.515625 Z M 8.15625 0 "/></g></g></g><g fill="#136d43" fill-opacity="1"><g transform="translate(456.196745, 438.664171)"><g><path d="M 19.625 -17.796875 L 19.625 0 L 13.90625 0 L 13.90625 -2.9375 C 12.695312 -0.820312 10.769531 0.234375 8.125 0.234375 C 6.1875 0.234375 4.640625 -0.378906 3.484375 -1.609375 C 2.328125 -2.847656 1.75 -4.503906 1.75 -6.578125 L 1.75 -17.796875 L 7.46875 -17.796875 L 7.46875 -8.1875 C 7.46875 -7.132812 7.734375 -6.304688 8.265625 -5.703125 C 8.804688 -5.097656 9.53125 -4.796875 10.4375 -4.796875 C 11.519531 -4.816406 12.367188 -5.21875 12.984375 -6 C 13.597656 -6.78125 13.90625 -7.785156 13.90625 -9.015625 L 13.90625 -17.796875 Z M 19.625 -17.796875 "/></g></g></g><g fill="#136d43" fill-opacity="1"><g transform="translate(478.198835, 438.664171)"><g><path d="M 8.65625 -18.0625 C 11.269531 -18.0625 13.710938 -17.390625 15.984375 -16.046875 L 14.03125 -12.359375 C 11.832031 -13.546875 9.960938 -14.140625 8.421875 -14.140625 C 7.253906 -14.140625 6.671875 -13.734375 6.671875 -12.921875 C 6.671875 -12.472656 6.988281 -12.097656 7.625 -11.796875 C 8.269531 -11.503906 9.050781 -11.238281 9.96875 -11 C 10.894531 -10.757812 11.816406 -10.457031 12.734375 -10.09375 C 13.648438 -9.726562 14.425781 -9.148438 15.0625 -8.359375 C 15.695312 -7.566406 16.015625 -6.597656 16.015625 -5.453125 C 16.015625 -3.671875 15.320312 -2.273438 13.9375 -1.265625 C 12.550781 -0.265625 10.742188 0.234375 8.515625 0.234375 C 5.367188 0.234375 2.707031 -0.601562 0.53125 -2.28125 L 2.34375 -5.90625 C 4.4375 -4.4375 6.539062 -3.703125 8.65625 -3.703125 C 9.957031 -3.703125 10.609375 -4.109375 10.609375 -4.921875 C 10.609375 -5.378906 10.289062 -5.765625 9.65625 -6.078125 C 9.03125 -6.390625 8.265625 -6.664062 7.359375 -6.90625 C 6.460938 -7.144531 5.5625 -7.445312 4.65625 -7.8125 C 3.75 -8.175781 2.984375 -8.742188 2.359375 -9.515625 C 1.734375 -10.285156 1.421875 -11.253906 1.421875 -12.421875 C 1.421875 -14.203125 2.09375 -15.585938 3.4375 -16.578125 C 4.78125 -17.566406 6.519531 -18.0625 8.65625 -18.0625 Z M 8.65625 -18.0625 "/></g></g></g><g fill="#136d43" fill-opacity="1"><g transform="translate(495.245517, 438.664171)"><g/></g></g><g fill="#136d43" fill-opacity="1"><g transform="translate(503.00902, 438.664171)"><g><path d="M 11.03125 -20.25 C 10.4375 -20.269531 9.945312 -20.109375 9.5625 -19.765625 C 9.175781 -19.421875 8.984375 -18.929688 8.984375 -18.296875 L 8.984375 -17.015625 L 13.015625 -17.015625 L 13.015625 -13.25 L 8.984375 -13.25 L 8.984375 0 L 3.34375 0 L 3.34375 -13.25 L 0.921875 -13.25 L 0.921875 -17.015625 L 3.34375 -17.015625 L 3.34375 -18.65625 C 3.34375 -20.570312 3.976562 -22.066406 5.25 -23.140625 C 6.53125 -24.222656 8.160156 -24.765625 10.140625 -24.765625 C 12.035156 -24.765625 13.695312 -24.347656 15.125 -23.515625 L 13.109375 -19.515625 C 12.453125 -20.003906 11.757812 -20.25 11.03125 -20.25 Z M 11.03125 -20.25 "/></g></g></g><g fill="#136d43" fill-opacity="1"><g transform="translate(515.860089, 438.664171)"><g><path d="M 10.53125 -18 C 13.4375 -18 15.78125 -17.164062 17.5625 -15.5 C 19.351562 -13.84375 20.25 -11.648438 20.25 -8.921875 C 20.25 -6.191406 19.351562 -3.988281 17.5625 -2.3125 C 15.78125 -0.632812 13.4375 0.203125 10.53125 0.203125 C 7.601562 0.203125 5.25 -0.632812 3.46875 -2.3125 C 1.6875 -3.988281 0.796875 -6.191406 0.796875 -8.921875 C 0.796875 -11.648438 1.6875 -13.84375 3.46875 -15.5 C 5.25 -17.164062 7.601562 -18 10.53125 -18 Z M 10.53125 -13.484375 C 9.34375 -13.484375 8.378906 -13.050781 7.640625 -12.1875 C 6.910156 -11.332031 6.546875 -10.222656 6.546875 -8.859375 C 6.546875 -7.460938 6.910156 -6.34375 7.640625 -5.5 C 8.378906 -4.65625 9.34375 -4.234375 10.53125 -4.234375 C 11.695312 -4.234375 12.648438 -4.65625 13.390625 -5.5 C 14.128906 -6.34375 14.5 -7.460938 14.5 -8.859375 C 14.5 -10.222656 14.128906 -11.332031 13.390625 -12.1875 C 12.648438 -13.050781 11.695312 -13.484375 10.53125 -13.484375 Z M 10.53125 -13.484375 "/></g></g></g><g fill="#136d43" fill-opacity="1"><g transform="translate(537.003245, 438.664171)"><g><path d="M 10.53125 -18 C 13.4375 -18 15.78125 -17.164062 17.5625 -15.5 C 19.351562 -13.84375 20.25 -11.648438 20.25 -8.921875 C 20.25 -6.191406 19.351562 -3.988281 17.5625 -2.3125 C 15.78125 -0.632812 13.4375 0.203125 10.53125 0.203125 C 7.601562 0.203125 5.25 -0.632812 3.46875 -2.3125 C 1.6875 -3.988281 0.796875 -6.191406 0.796875 -8.921875 C 0.796875 -11.648438 1.6875 -13.84375 3.46875 -15.5 C 5.25 -17.164062 7.601562 -18 10.53125 -18 Z M 10.53125 -13.484375 C 9.34375 -13.484375 8.378906 -13.050781 7.640625 -12.1875 C 6.910156 -11.332031 6.546875 -10.222656 6.546875 -8.859375 C 6.546875 -7.460938 6.910156 -6.34375 7.640625 -5.5 C 8.378906 -4.65625 9.34375 -4.234375 10.53125 -4.234375 C 11.695312 -4.234375 12.648438 -4.65625 13.390625 -5.5 C 14.128906 -6.34375 14.5 -7.460938 14.5 -8.859375 C 14.5 -10.222656 14.128906 -11.332031 13.390625 -12.1875 C 12.648438 -13.050781 11.695312 -13.484375 10.53125 -13.484375 Z M 10.53125 -13.484375 "/></g></g></g><g fill="#136d43" fill-opacity="1"><g transform="translate(558.146401, 438.664171)"><g><path d="M 20.21875 -24.515625 L 20.21875 0 L 14.5 0 L 14.5 -2.34375 C 13.195312 -0.625 11.414062 0.234375 9.15625 0.234375 C 6.644531 0.234375 4.628906 -0.613281 3.109375 -2.3125 C 1.585938 -4.007812 0.828125 -6.234375 0.828125 -8.984375 C 0.828125 -11.710938 1.570312 -13.898438 3.0625 -15.546875 C 4.5625 -17.203125 6.546875 -18.03125 9.015625 -18.03125 C 11.367188 -18.03125 13.195312 -17.171875 14.5 -15.453125 L 14.5 -24.515625 Z M 7.65625 -5.46875 C 8.382812 -4.613281 9.34375 -4.1875 10.53125 -4.1875 C 11.726562 -4.1875 12.6875 -4.613281 13.40625 -5.46875 C 14.132812 -6.332031 14.5 -7.460938 14.5 -8.859375 C 14.5 -10.222656 14.132812 -11.332031 13.40625 -12.1875 C 12.6875 -13.050781 11.726562 -13.484375 10.53125 -13.484375 C 9.34375 -13.484375 8.382812 -13.054688 7.65625 -12.203125 C 6.9375 -11.359375 6.566406 -10.242188 6.546875 -8.859375 C 6.566406 -7.460938 6.9375 -6.332031 7.65625 -5.46875 Z M 7.65625 -5.46875 "/></g></g></g><g fill="#136d43" fill-opacity="1"><g transform="translate(580.908328, 438.664171)"><g><path d="M 2.015625 -4.484375 C 2.523438 -4.992188 3.1875 -5.25 4 -5.25 C 4.8125 -5.25 5.472656 -4.992188 5.984375 -4.484375 C 6.503906 -3.984375 6.765625 -3.320312 6.765625 -2.5 C 6.765625 -1.6875 6.503906 -1.019531 5.984375 -0.5 C 5.472656 0.0078125 4.8125 0.265625 4 0.265625 C 3.1875 0.265625 2.523438 0.0078125 2.015625 -0.5 C 1.503906 -1.019531 1.25 -1.6875 1.25 -2.5 C 1.25 -3.320312 1.503906 -3.984375 2.015625 -4.484375 Z M 2.015625 -4.484375 "/></g></g></g><g fill="#136d43" fill-opacity="1"><g transform="translate(589.017933, 438.664171)"><g/></g></g><g fill="#198653" fill-opacity="1"><g transform="translate(0.0000108667, 177.420391)"><g><path d="M 54.859375 -52.15625 L 23.09375 -52.15625 L 23.09375 -37.0625 L 52.34375 -37.0625 L 52.34375 -24.03125 L 23.09375 -24.03125 L 23.09375 0 L 6.515625 0 L 6.515625 -65.203125 L 54.859375 -65.203125 Z M 54.859375 -52.15625 "/></g></g></g><g fill="#198653" fill-opacity="1"><g transform="translate(56.250325, 177.420391)"><g><path d="M 37.4375 -65.75 C 47.5625 -65.75 55.976562 -62.597656 62.6875 -56.296875 C 69.394531 -49.992188 72.75 -42.125 72.75 -32.6875 C 72.75 -23.1875 69.378906 -15.238281 62.640625 -8.84375 C 55.898438 -2.445312 47.5 0.75 37.4375 0.75 C 27.382812 0.75 19.003906 -2.429688 12.296875 -8.796875 C 5.585938 -15.160156 2.234375 -23.125 2.234375 -32.6875 C 2.234375 -42.1875 5.585938 -50.070312 12.296875 -56.34375 C 19.003906 -62.613281 27.382812 -65.75 37.4375 -65.75 Z M 37.625 -51.875 C 32.53125 -51.875 28.179688 -50.023438 24.578125 -46.328125 C 20.984375 -42.640625 19.1875 -38.0625 19.1875 -32.59375 C 19.1875 -27.132812 21 -22.523438 24.625 -18.765625 C 28.257812 -15.015625 32.59375 -13.140625 37.625 -13.140625 C 42.65625 -13.140625 46.925781 -15.015625 50.4375 -18.765625 C 53.945312 -22.523438 55.703125 -27.132812 55.703125 -32.59375 C 55.703125 -38.0625 53.945312 -42.640625 50.4375 -46.328125 C 46.925781 -50.023438 42.65625 -51.875 37.625 -51.875 Z M 37.625 -51.875 "/></g></g></g><g fill="#198653" fill-opacity="1"><g transform="translate(131.219694, 177.420391)"><g><path d="M 37.4375 -65.75 C 47.5625 -65.75 55.976562 -62.597656 62.6875 -56.296875 C 69.394531 -49.992188 72.75 -42.125 72.75 -32.6875 C 72.75 -23.1875 69.378906 -15.238281 62.640625 -8.84375 C 55.898438 -2.445312 47.5 0.75 37.4375 0.75 C 27.382812 0.75 19.003906 -2.429688 12.296875 -8.796875 C 5.585938 -15.160156 2.234375 -23.125 2.234375 -32.6875 C 2.234375 -42.1875 5.585938 -50.070312 12.296875 -56.34375 C 19.003906 -62.613281 27.382812 -65.75 37.4375 -65.75 Z M 37.625 -51.875 C 32.53125 -51.875 28.179688 -50.023438 24.578125 -46.328125 C 20.984375 -42.640625 19.1875 -38.0625 19.1875 -32.59375 C 19.1875 -27.132812 21 -22.523438 24.625 -18.765625 C 28.257812 -15.015625 32.59375 -13.140625 37.625 -13.140625 C 42.65625 -13.140625 46.925781 -15.015625 50.4375 -18.765625 C 53.945312 -22.523438 55.703125 -27.132812 55.703125 -32.59375 C 55.703125 -38.0625 53.945312 -42.640625 50.4375 -46.328125 C 46.925781 -50.023438 42.65625 -51.875 37.625 -51.875 Z M 37.625 -51.875 "/></g></g></g><g fill="#198653" fill-opacity="1"><g transform="translate(206.189063, 177.420391)"><g><path d="M 6.515625 -65.203125 L 34.5625 -65.203125 C 44.800781 -65.203125 53.132812 -62.1875 59.5625 -56.15625 C 65.988281 -50.132812 69.203125 -42.28125 69.203125 -32.59375 C 69.203125 -22.96875 65.941406 -15.128906 59.421875 -9.078125 C 52.898438 -3.023438 44.394531 0 33.90625 0 L 6.515625 0 Z M 23.09375 -51.96875 L 23.09375 -13.21875 L 34.921875 -13.21875 C 40.015625 -13.21875 44.191406 -15.003906 47.453125 -18.578125 C 50.710938 -22.148438 52.34375 -26.789062 52.34375 -32.5 C 52.34375 -38.21875 50.632812 -42.890625 47.21875 -46.515625 C 43.800781 -50.148438 39.457031 -51.96875 34.1875 -51.96875 Z M 23.09375 -51.96875 "/></g></g></g><g fill="#198653" fill-opacity="1"><g transform="translate(277.603696, 177.420391)"><g/></g></g><g fill="#198653" fill-opacity="1"><g transform="translate(0.0000108667, 280.658762)"><g><path d="M 45.828125 0 L 36.140625 -18.34375 L 23.09375 -18.34375 L 23.09375 0 L 6.515625 0 L 6.515625 -65.203125 L 35.671875 -65.203125 C 44.304688 -65.203125 50.984375 -63.226562 55.703125 -59.28125 C 60.421875 -55.34375 62.78125 -49.738281 62.78125 -42.46875 C 62.78125 -32.414062 58.835938 -25.429688 50.953125 -21.515625 L 64.640625 0 Z M 23.09375 -31.390625 L 35.671875 -31.390625 C 39.273438 -31.390625 42.066406 -32.289062 44.046875 -34.09375 C 46.035156 -35.894531 47.03125 -38.5 47.03125 -41.90625 C 47.03125 -45.257812 46.035156 -47.804688 44.046875 -49.546875 C 42.066406 -51.285156 39.273438 -52.15625 35.671875 -52.15625 L 23.09375 -52.15625 Z M 23.09375 -31.390625 "/></g></g></g><g fill="#198653" fill-opacity="1"><g transform="translate(67.425871, 280.658762)"><g><path d="M 57.5625 -52.15625 L 23.09375 -52.15625 L 23.09375 -39.21875 L 54.203125 -39.21875 L 54.203125 -26.171875 L 23.09375 -26.171875 L 23.09375 -13.046875 L 58.578125 -13.046875 L 58.578125 0 L 6.515625 0 L 6.515625 -65.203125 L 57.5625 -65.203125 Z M 57.5625 -52.15625 "/></g></g></g><g fill="#198653" fill-opacity="1"><g transform="translate(130.19525, 280.658762)"><g><path d="M 31.578125 -65.9375 C 41.328125 -65.9375 49.894531 -63.515625 57.28125 -58.671875 L 51.046875 -45.734375 C 47.628906 -47.722656 43.960938 -49.351562 40.046875 -50.625 C 36.140625 -51.894531 32.847656 -52.53125 30.171875 -52.53125 C 25.390625 -52.53125 23 -50.945312 23 -47.78125 C 23 -45.726562 24.175781 -44.082031 26.53125 -42.84375 C 28.894531 -41.601562 31.769531 -40.53125 35.15625 -39.625 C 38.539062 -38.726562 41.925781 -37.644531 45.3125 -36.375 C 48.695312 -35.101562 51.566406 -33.035156 53.921875 -30.171875 C 56.285156 -27.316406 57.46875 -23.71875 57.46875 -19.375 C 57.46875 -13.101562 55.015625 -8.210938 50.109375 -4.703125 C 45.203125 -1.191406 38.960938 0.5625 31.390625 0.5625 C 25.984375 0.5625 20.640625 -0.367188 15.359375 -2.234375 C 10.085938 -4.097656 5.492188 -6.644531 1.578125 -9.875 L 8.015625 -22.640625 C 11.304688 -19.773438 15.1875 -17.425781 19.65625 -15.59375 C 24.125 -13.769531 28.097656 -12.859375 31.578125 -12.859375 C 34.242188 -12.859375 36.320312 -13.335938 37.8125 -14.296875 C 39.300781 -15.253906 40.046875 -16.664062 40.046875 -18.53125 C 40.046875 -20.332031 39.191406 -21.835938 37.484375 -23.046875 C 35.773438 -24.265625 33.648438 -25.164062 31.109375 -25.75 C 28.566406 -26.34375 25.800781 -27.132812 22.8125 -28.125 C 19.832031 -29.125 17.070312 -30.210938 14.53125 -31.390625 C 11.988281 -32.566406 9.863281 -34.441406 8.15625 -37.015625 C 6.445312 -39.597656 5.59375 -42.691406 5.59375 -46.296875 C 5.59375 -52.253906 7.96875 -57.015625 12.71875 -60.578125 C 17.46875 -64.148438 23.753906 -65.9375 31.578125 -65.9375 Z M 31.578125 -65.9375 "/></g></g></g><g fill="#198653" fill-opacity="1"><g transform="translate(190.170753, 280.658762)"><g><path d="M 37.0625 -65.75 C 41.90625 -65.75 46.671875 -64.753906 51.359375 -62.765625 C 56.054688 -60.785156 60.046875 -58.117188 63.328125 -54.765625 L 53.734375 -43.40625 C 51.628906 -46.007812 49.101562 -48.070312 46.15625 -49.59375 C 43.207031 -51.113281 40.269531 -51.875 37.34375 -51.875 C 32.195312 -51.875 27.882812 -50.054688 24.40625 -46.421875 C 20.925781 -42.796875 19.1875 -38.3125 19.1875 -32.96875 C 19.1875 -27.507812 20.925781 -22.945312 24.40625 -19.28125 C 27.882812 -15.613281 32.195312 -13.78125 37.34375 -13.78125 C 40.082031 -13.78125 42.925781 -14.460938 45.875 -15.828125 C 48.820312 -17.203125 51.441406 -19.066406 53.734375 -21.421875 L 63.421875 -11.171875 C 59.890625 -7.578125 55.71875 -4.691406 50.90625 -2.515625 C 46.09375 -0.335938 41.296875 0.75 36.515625 0.75 C 26.703125 0.75 18.535156 -2.445312 12.015625 -8.84375 C 5.492188 -15.238281 2.234375 -23.21875 2.234375 -32.78125 C 2.234375 -42.15625 5.554688 -49.992188 12.203125 -56.296875 C 18.847656 -62.597656 27.132812 -65.75 37.0625 -65.75 Z M 37.0625 -65.75 "/></g></g></g><g fill="#198653" fill-opacity="1"><g transform="translate(254.616475, 280.658762)"><g><path d="M 65.203125 -65.203125 L 65.203125 -27.390625 C 65.203125 -18.753906 62.53125 -11.90625 57.1875 -6.84375 C 51.84375 -1.78125 44.609375 0.75 35.484375 0.75 C 26.296875 0.75 18.984375 -1.78125 13.546875 -6.84375 C 8.117188 -11.90625 5.40625 -18.753906 5.40625 -27.390625 L 5.40625 -65.203125 L 21.984375 -65.203125 L 21.984375 -27.390625 C 21.984375 -23.035156 23.238281 -19.570312 25.75 -17 C 28.269531 -14.425781 31.546875 -13.140625 35.578125 -13.140625 C 39.554688 -13.140625 42.738281 -14.410156 45.125 -16.953125 C 47.519531 -19.492188 48.71875 -22.972656 48.71875 -27.390625 L 48.71875 -65.203125 Z M 65.203125 -65.203125 "/></g></g></g><g fill="#198653" fill-opacity="1"><g transform="translate(325.208757, 280.658762)"><g><path d="M 57.5625 -52.15625 L 23.09375 -52.15625 L 23.09375 -39.21875 L 54.203125 -39.21875 L 54.203125 -26.171875 L 23.09375 -26.171875 L 23.09375 -13.046875 L 58.578125 -13.046875 L 58.578125 0 L 6.515625 0 L 6.515625 -65.203125 L 57.5625 -65.203125 Z M 57.5625 -52.15625 "/></g></g></g><g fill="#198653" fill-opacity="1"><g transform="translate(387.978137, 280.658762)"><g><path d="M 45.828125 0 L 36.140625 -18.34375 L 23.09375 -18.34375 L 23.09375 0 L 6.515625 0 L 6.515625 -65.203125 L 35.671875 -65.203125 C 44.304688 -65.203125 50.984375 -63.226562 55.703125 -59.28125 C 60.421875 -55.34375 62.78125 -49.738281 62.78125 -42.46875 C 62.78125 -32.414062 58.835938 -25.429688 50.953125 -21.515625 L 64.640625 0 Z M 23.09375 -31.390625 L 35.671875 -31.390625 C 39.273438 -31.390625 42.066406 -32.289062 44.046875 -34.09375 C 46.035156 -35.894531 47.03125 -38.5 47.03125 -41.90625 C 47.03125 -45.257812 46.035156 -47.804688 44.046875 -49.546875 C 42.066406 -51.285156 39.273438 -52.15625 35.671875 -52.15625 L 23.09375 -52.15625 Z M 23.09375 -31.390625 "/></g></g></g><g fill="#198653" fill-opacity="1"><g transform="translate(455.388774, 280.658762)"><g/></g></g><g fill="#198653" fill-opacity="1"><g transform="translate(476.994856, 280.658762)"><g/></g></g></svg>